<svg width="407" height="28" viewBox="0 0 407 28" version="1.1" xmlns="http://www.w3.org/2000/svg"><title>Brick | Communicating Architecture</title><g id="Page-1" stroke="none" stroke-width="1" fill="none" fill-rule="evenodd"><g id="Artboard-1" transform="translate(-12 -18)"><g id="fulllogo" transform="translate(12 18)"><g id="communicating" transform="translate(105 9)" fill="#1E1E1E"><path d="M9.167 12.472a4.56 4.56 0 0 1-1.04 1.297c-.415.356-.89.63-1.424.821a5.093 5.093 0 0 1-1.732.287 4.98 4.98 0 0 1-1.921-.376 4.856 4.856 0 0 1-1.603-1.069 4.028 4.028 0 0 1-.743-.99 4.32 4.32 0 0 1-.395-1.167 8.744 8.744 0 0 1-.15-1.515 86.237 86.237 0 0 1-.02-2.049c0-.792.007-1.475.02-2.049a8.744 8.744 0 0 1 .15-1.515A4.32 4.32 0 0 1 .704 2.98a4.01 4.01 0 0 1 .743-.99A4.869 4.869 0 0 1 3.05.92 4.98 4.98 0 0 1 4.97.544c1.28 0 2.34.367 3.178 1.1.838.731 1.375 1.738 1.613 3.018H8.67c-.21-.989-.642-1.765-1.295-2.326-.653-.56-1.456-.84-2.405-.84-.502 0-.984.091-1.446.276a3.623 3.623 0 0 0-1.227.811 3.207 3.207 0 0 0-.594.803 3.71 3.71 0 0 0-.327 1.01 9.724 9.724 0 0 0-.138 1.384c-.02.535-.03 1.18-.03 1.931 0 .752.01 1.395.03 1.93.02.535.066.997.138 1.386.073.39.182.726.327 1.01.145.283.343.551.594.801.356.357.765.627 1.227.812.462.185.944.277 1.446.277.949 0 1.758-.28 2.425-.84.666-.562 1.105-1.338 1.316-2.327H9.76a5.757 5.757 0 0 1-.594 1.712" id="Fill-2"/><path d="M21.48 7.71c0-.751-.01-1.395-.028-1.93a9.726 9.726 0 0 0-.14-1.385 3.726 3.726 0 0 0-.326-1.01 3.204 3.204 0 0 0-.593-.801 3.64 3.64 0 0 0-1.228-.812 3.853 3.853 0 0 0-1.445-.277c-.502 0-.984.092-1.446.277a3.636 3.636 0 0 0-1.227.812 3.21 3.21 0 0 0-.594.802c-.145.284-.254.62-.326 1.009a9.583 9.583 0 0 0-.14 1.386 52.73 52.73 0 0 0-.03 1.93c0 .753.01 1.396.03 1.93.02.535.067.997.14 1.386.072.39.18.726.326 1.01.146.284.343.55.594.8.356.358.766.629 1.227.813.462.185.944.277 1.446.277.5 0 .983-.092 1.445-.277a3.61 3.61 0 0 0 1.228-.812c.25-.25.448-.517.593-.801.145-.284.254-.62.327-1.01a9.71 9.71 0 0 0 .139-1.386c.019-.534.029-1.177.029-1.93m1.069 0c0 .792-.007 1.475-.02 2.049a8.953 8.953 0 0 1-.148 1.515 4.328 4.328 0 0 1-.396 1.168 4.044 4.044 0 0 1-.742.989 4.884 4.884 0 0 1-1.604 1.07 4.993 4.993 0 0 1-1.92.376 4.986 4.986 0 0 1-1.92-.376 4.878 4.878 0 0 1-1.605-1.07 4.038 4.038 0 0 1-.741-.99 4.328 4.328 0 0 1-.397-1.167 9.057 9.057 0 0 1-.148-1.515 91.937 91.937 0 0 1-.02-2.05c0-.79.007-1.474.02-2.048a9.034 9.034 0 0 1 .148-1.514c.086-.436.218-.825.397-1.168.178-.343.425-.673.74-.99A4.967 4.967 0 0 1 17.72.545c.674 0 1.314.125 1.92.376a4.897 4.897 0 0 1 1.605 1.069c.316.317.564.647.742.99.179.343.31.732.396 1.168.086.435.135.94.148 1.514.013.574.02 1.258.02 2.049" id="Fill-4"/><path id="Fill-6" d="M37.12 3.138l-4.276 9.641h-1.069L27.42 3.138v11.621h-1.07V.663h1.07l4.91 10.869L37.12.663h1.07v14.096h-1.07z"/><path id="Fill-8" d="M53.314 3.138l-4.276 9.641h-1.07l-4.355-9.641v11.621h-1.069V.663h1.07l4.91 10.869L53.313.663h1.07v14.096h-1.07z"/><path d="M67.845 12.076a4.363 4.363 0 0 1-1 1.484c-.43.416-.937.74-1.524.971a5.308 5.308 0 0 1-1.951.346 5.301 5.301 0 0 1-1.95-.346 4.552 4.552 0 0 1-1.523-.97 4.349 4.349 0 0 1-1-1.485 4.896 4.896 0 0 1-.357-1.89V.663h1.07v9.383c0 .582.089 1.112.267 1.593.178.482.432.891.76 1.227.332.337.728.598 1.19.783.46.185.976.277 1.543.277.568 0 1.082-.091 1.545-.277a3.405 3.405 0 0 0 1.187-.783c.33-.336.585-.745.763-1.227a4.559 4.559 0 0 0 .267-1.593V.663H68.2v9.522c0 .686-.12 1.316-.356 1.891" id="Fill-10"/><path id="Fill-12" d="M73.427 2.504V14.76h-1.068V.663h1.068l8.137 12.215V.663h1.069V14.76h-1.069z"/><path id="Fill-14" d="M86.988 14.759h1.069V.663h-1.069z"/><path d="M100.885 12.472a4.578 4.578 0 0 1-1.038 1.297c-.417.356-.891.63-1.426.821a5.085 5.085 0 0 1-1.733.287 4.971 4.971 0 0 1-3.523-1.445 4.023 4.023 0 0 1-.743-.99 4.355 4.355 0 0 1-.395-1.167 8.945 8.945 0 0 1-.15-1.515 92.587 92.587 0 0 1-.018-2.049c0-.792.006-1.475.019-2.049a8.945 8.945 0 0 1 .148-1.515c.087-.435.219-.824.397-1.167.177-.344.424-.674.742-.99A4.972 4.972 0 0 1 96.689.544c1.28 0 2.338.366 3.176 1.098.839.732 1.377 1.74 1.615 3.02h-1.09c-.212-.99-.642-1.766-1.296-2.327-.653-.56-1.456-.84-2.405-.84-.502 0-.984.091-1.445.276a3.627 3.627 0 0 0-1.228.811 3.232 3.232 0 0 0-.595.803 3.71 3.71 0 0 0-.326 1.01 9.568 9.568 0 0 0-.138 1.384 55.467 55.467 0 0 0-.03 1.931c0 .752.01 1.395.03 1.93.02.535.066.997.139 1.386.072.39.18.726.325 1.01.146.283.343.551.594.801.356.357.766.627 1.228.812.462.185.944.277 1.446.277.95 0 1.759-.28 2.425-.84.666-.562 1.105-1.338 1.316-2.327h1.05a5.785 5.785 0 0 1-.595 1.712" id="Fill-16"/><path d="M105.795 10.384h5.9l-2.95-8.295-2.95 8.295zm6.236.95h-6.572l-1.227 3.425h-1.15L108.27.664h.95l5.187 14.095h-1.148l-1.228-3.425z" id="Fill-17"/><path id="Fill-18" d="M119.376 14.759h-1.07V1.614h-4.196V.663h9.483v.95h-4.217z"/><path id="Fill-19" d="M126.364 14.759h1.068V.663h-1.068z"/><path id="Fill-20" d="M132.857 2.504V14.76h-1.07V.663h1.07l8.137 12.215V.663h1.069V14.76h-1.07z"/><path d="M155.286 11.78a3.86 3.86 0 0 1-.89 1.474 4.806 4.806 0 0 1-1.664 1.198 5.012 5.012 0 0 1-2.039.425 4.975 4.975 0 0 1-1.92-.376 4.88 4.88 0 0 1-1.604-1.069 4.043 4.043 0 0 1-.74-.99 4.321 4.321 0 0 1-.398-1.167 8.953 8.953 0 0 1-.148-1.515 86.237 86.237 0 0 1-.02-2.049c0-.792.006-1.475.02-2.049a8.953 8.953 0 0 1 .148-1.515c.086-.435.218-.824.397-1.167.178-.344.425-.674.741-.99a4.975 4.975 0 0 1 3.524-1.445c.608 0 1.181.098 1.723.296a4.77 4.77 0 0 1 1.445.832 4.65 4.65 0 0 1 1.06 1.296c.283.51.477 1.073.583 1.693h-1.069c-.21-.99-.65-1.765-1.316-2.326-.667-.56-1.475-.84-2.426-.84-.5 0-.983.091-1.445.276a3.637 3.637 0 0 0-1.228.811c-.25.252-.448.52-.593.803a3.71 3.71 0 0 0-.327 1.01 9.568 9.568 0 0 0-.139 1.384 55.467 55.467 0 0 0-.029 1.931c0 .752.01 1.395.03 1.93.02.535.065.997.138 1.386.073.39.182.726.327 1.01a3.2 3.2 0 0 0 .593.801c.357.357.766.627 1.228.812.462.185.944.277 1.445.277.555 0 1.09-.115 1.604-.346a3.62 3.62 0 0 0 1.98-2.247c.132-.436.198-.957.198-1.564V8.503h-3.782v-.95h4.85v2.296c0 .752-.085 1.395-.257 1.93" id="Fill-21"/><path d="M165.184 10.384h5.9l-2.95-8.295-2.95 8.295zm6.236.95h-6.572l-1.227 3.425h-1.149L167.66.664h.95l5.187 14.095h-1.148l-1.228-3.425z" id="Fill-22"/><path d="M184.606 4.464c0-.976-.291-1.695-.872-2.157-.581-.463-1.326-.693-2.236-.693h-4.158v5.701h4.158c.91 0 1.655-.23 2.236-.693.58-.462.872-1.18.872-2.158zm-3.386 3.801h-3.88v6.494h-1.07V.663h5.366c.567 0 1.099.083 1.594.248.494.165.923.405 1.287.722.362.317.646.713.85 1.188.205.475.307 1.016.307 1.624 0 1.068-.293 1.926-.881 2.573-.586.647-1.375 1.056-2.365 1.227l3.405 6.514h-1.247l-3.366-6.494z" id="Fill-23"/><path d="M197.75 12.472a4.578 4.578 0 0 1-1.039 1.297c-.416.356-.89.63-1.425.821a5.095 5.095 0 0 1-1.733.287 4.975 4.975 0 0 1-1.92-.376 4.87 4.87 0 0 1-1.604-1.069 4.048 4.048 0 0 1-.742-.99 4.355 4.355 0 0 1-.396-1.167 8.851 8.851 0 0 1-.148-1.515 86.237 86.237 0 0 1-.02-2.049c0-.792.006-1.475.02-2.049a8.851 8.851 0 0 1 .148-1.515c.086-.435.218-.824.396-1.167a4.03 4.03 0 0 1 .742-.99 4.975 4.975 0 0 1 3.524-1.445c1.28 0 2.34.366 3.177 1.098.84.732 1.376 1.74 1.614 3.02h-1.089c-.21-.99-.643-1.766-1.297-2.327-.652-.56-1.455-.84-2.405-.84-.502 0-.983.091-1.445.276a3.623 3.623 0 0 0-1.227.811 3.207 3.207 0 0 0-.594.803c-.146.283-.255.62-.327 1.01a9.44 9.44 0 0 0-.138 1.384c-.02.535-.03 1.18-.03 1.931 0 .752.01 1.395.03 1.93.02.535.065.997.138 1.386.072.39.181.726.327 1.01.145.283.343.551.594.801.356.357.765.627 1.227.812.462.185.943.277 1.445.277.95 0 1.76-.28 2.426-.84.666-.562 1.104-1.338 1.316-2.327h1.05a5.757 5.757 0 0 1-.595 1.712" id="Fill-24"/><path id="Fill-25" d="M210.44 8.127h-7.344v6.631h-1.07V.665h1.07v6.513h7.344V.663h1.07v14.094h-1.07z"/><path id="Fill-26" d="M215.864 14.759h1.069V.663h-1.069z"/><path id="Fill-27" d="M224.97 14.759h-1.068V1.614h-4.198V.663h9.483v.95h-4.216z"/><path id="Fill-28" d="M231.959.663h8.552v.95h-7.483v5.563h6.375v.95h-6.375v5.682h7.483v.951h-8.552z"/><path d="M252.27 12.472a4.578 4.578 0 0 1-1.039 1.297c-.417.356-.89.63-1.426.821a5.085 5.085 0 0 1-1.732.287 4.975 4.975 0 0 1-1.92-.376 4.87 4.87 0 0 1-1.604-1.069 4.023 4.023 0 0 1-.742-.99 4.355 4.355 0 0 1-.396-1.167 8.945 8.945 0 0 1-.149-1.515 92.587 92.587 0 0 1-.019-2.049c0-.792.006-1.475.02-2.049a8.945 8.945 0 0 1 .148-1.515c.086-.435.218-.824.396-1.167.178-.344.425-.674.742-.99a4.975 4.975 0 0 1 3.524-1.445c1.28 0 2.34.366 3.177 1.098.838.732 1.376 1.74 1.614 3.02h-1.089c-.21-.99-.643-1.766-1.297-2.327-.653-.56-1.455-.84-2.405-.84-.502 0-.984.091-1.445.276a3.637 3.637 0 0 0-1.228.811 3.232 3.232 0 0 0-.594.803 3.71 3.71 0 0 0-.326 1.01 9.568 9.568 0 0 0-.139 1.384 55.467 55.467 0 0 0-.029 1.931c0 .752.01 1.395.03 1.93.02.535.065.997.138 1.386.073.39.181.726.326 1.01.146.283.343.551.594.801.357.357.766.627 1.228.812.461.185.943.277 1.445.277.95 0 1.76-.28 2.425-.84.667-.562 1.105-1.338 1.316-2.327h1.05a5.785 5.785 0 0 1-.594 1.712" id="Fill-29"/><path id="Fill-30" d="M259.833 14.759h-1.069V1.614h-4.198V.663h9.483v.95h-4.216z"/><path d="M275.928 12.076a4.377 4.377 0 0 1-1 1.484c-.43.416-.938.74-1.524.971a5.312 5.312 0 0 1-1.951.346 5.31 5.31 0 0 1-1.95-.346 4.562 4.562 0 0 1-1.524-.97 4.363 4.363 0 0 1-1-1.485 4.896 4.896 0 0 1-.356-1.89V.663h1.069v9.383c0 .582.089 1.112.267 1.593.178.482.432.891.762 1.227.33.337.726.598 1.188.783.462.185.977.277 1.544.277.568 0 1.082-.091 1.545-.277a3.414 3.414 0 0 0 1.187-.783c.33-.336.585-.745.762-1.227a4.559 4.559 0 0 0 .268-1.593V.663h1.068v9.522c0 .686-.118 1.316-.355 1.891" id="Fill-31"/><path d="M288.776 4.464c0-.976-.291-1.695-.871-2.157-.581-.463-1.327-.693-2.237-.693h-4.158v5.701h4.158c.91 0 1.656-.23 2.237-.693.58-.462.87-1.18.87-2.158zm-3.386 3.801h-3.88v6.494h-1.07V.663h5.366c.567 0 1.099.083 1.594.248.495.165.923.405 1.287.722.363.317.646.713.85 1.188.206.475.308 1.016.308 1.624 0 1.068-.294 1.926-.881 2.573s-1.376 1.056-2.366 1.227l3.405 6.514h-1.247l-3.366-6.494z" id="Fill-32"/><path id="Fill-33" d="M293.447.663H302v.95h-7.483v5.563h6.373v.95h-6.373v5.682H302v.951h-8.553z"/></g><path id="separator" fill="#1E1E1E" d="M92.117 28h.772V.393h-.772z"/><g id="brick"><path d="M10.37 24.714c4.12 0 6.77-3.1 6.77-7.098 0-3.998-2.65-7.097-6.77-7.097-4.12 0-6.772 3.1-6.772 7.097 0 3.997 2.652 7.098 6.771 7.098zM0 .744h3.181v10.1c1.754-2.042 4.16-3.265 6.934-3.265 5.997 0 10.035 4.242 10.035 10.034 0 5.711-4.202 10.035-9.546 10.035-3.425 0-6.24-1.713-7.423-3.875v3.385H.001V.744z" id="Fill-34" fill="#1E1E1E"/><path id="Fill-35" fill="#1E1E1E" d="M37.783 27.158h3.182V8.069h-3.182z"/><path id="Fill-36" fill="#308EC7" d="M37.848 3.934h3.19V.744h-3.19z"/><path d="M33.324 8.419c-2.819-.07-5.743 1.603-6.604 3.28V8.072h-2.988v19.09h3.182v-7.003c0-.774-.184-4.861 1.953-6.835 1.312-1.213 3.231-1.937 5.521-1.937V8.503a7.53 7.53 0 0 0-1.064-.084" id="Fill-37" fill="#1E1E1E"/><path d="M56.152 24.53c-.49.12-1 .17-1.525.17-3.981 0-7.202-3.105-7.202-7.086a7.208 7.208 0 0 1 7.208-7.208c.524 0 1.03.062 1.523.168 1.349.244 2.576 1.084 3.599 1.957l1.889-1.932c-1.917-2.082-4.528-3.02-7.342-3.02-5.874 0-9.872 4.243-9.872 10.034 0 5.875 3.957 10.036 9.872 10.036 2.774 0 5.384-.94 7.22-3.06l-2.07-2.036c-.98.897-1.95 1.648-3.3 1.978" id="Fill-38" fill="#1E1E1E"/><path id="Fill-39" fill="#1E1E1E" d="M81.358 27.159L70.511 16.758l9.22-8.688h-4.418l-7.097 6.862V.745h-3.18v26.414h3.18v-8.576l8.87 8.576z"/></g></g></g></g></svg>