<svg xmlns="http://www.w3.org/2000/svg" viewBox="0 0 534.1 154.41"><defs><style>.a{fill:#1e1e1e;}.b{fill:#30a5de;}</style></defs><title>brick_logo</title><path class="a" d="M13,143.7a9.38,9.38,0,0,1-3.71.68,9.49,9.49,0,0,1-3.88-.75,7.79,7.79,0,0,1-2.9-2.13,9.39,9.39,0,0,1-1.84-3.41,16.32,16.32,0,0,1,0-9,9.39,9.39,0,0,1,1.84-3.41,7.92,7.92,0,0,1,2.9-2.14,9.66,9.66,0,0,1,3.88-.74,9.38,9.38,0,0,1,3.71.68,9.67,9.67,0,0,1,3.23,2.55l-1.53,1.4a8.91,8.91,0,0,0-2.55-2.07,6.35,6.35,0,0,0-2.86-.59,6.31,6.31,0,0,0-5.59,2.79,7.47,7.47,0,0,0-1.11,2.51,19.41,19.41,0,0,0,0,7,7.47,7.47,0,0,0,1.11,2.51,6.31,6.31,0,0,0,5.59,2.79,6.35,6.35,0,0,0,2.86-.59,8.91,8.91,0,0,0,2.55-2.07l1.53,1.4A9.67,9.67,0,0,1,13,143.7Z"/><path class="a" d="M37.65,133.6a22,22,0,0,1-.48,4.54A7.64,7.64,0,0,1,35,142.06a7.89,7.89,0,0,1-5.84,2.32,7.9,7.9,0,0,1-5.85-2.32,7.71,7.71,0,0,1-2.14-3.92,21.71,21.71,0,0,1,0-9.08,7.71,7.71,0,0,1,2.14-3.92,7.9,7.9,0,0,1,5.85-2.32A7.89,7.89,0,0,1,35,125.14a7.64,7.64,0,0,1,2.14,3.92A22,22,0,0,1,37.65,133.6Zm-2.22,0c0-.61,0-1.24,0-1.88a11.91,11.91,0,0,0-.24-1.89,8.93,8.93,0,0,0-.56-1.77,4.87,4.87,0,0,0-1-1.48,6.2,6.2,0,0,0-8.72,0,4.87,4.87,0,0,0-1,1.48,8.33,8.33,0,0,0-.57,1.77,11.91,11.91,0,0,0-.24,1.89c0,.64,0,1.27,0,1.88s0,1.24,0,1.88a11.91,11.91,0,0,0,.24,1.89,8.33,8.33,0,0,0,.57,1.77,4.87,4.87,0,0,0,1,1.48,6.2,6.2,0,0,0,8.72,0,4.87,4.87,0,0,0,1-1.48,8.93,8.93,0,0,0,.56-1.77,11.91,11.91,0,0,0,.24-1.89C35.41,134.84,35.43,134.21,35.43,133.6Z"/><path class="a" d="M72.82,131.07a6.71,6.71,0,0,0-1.47-4.67A5.57,5.57,0,0,0,67,124.79a5.9,5.9,0,0,0-4.34,1.57,5.78,5.78,0,0,0-1.59,4.32v13.43H58.86v-13a6.71,6.71,0,0,0-1.47-4.67,5.57,5.57,0,0,0-4.34-1.61,5.71,5.71,0,0,0-4.4,1.63,6.55,6.55,0,0,0-1.53,4.65v13H44.89v-21h2.23v2.49a7.82,7.82,0,0,1,6.24-2.75,8.16,8.16,0,0,1,4.08,1,6.75,6.75,0,0,1,2.68,2.86,8.12,8.12,0,0,1,3-2.86,8.69,8.69,0,0,1,4.18-1,9,9,0,0,1,3.15.53,7,7,0,0,1,2.4,1.48A7.72,7.72,0,0,1,75,130.68v13.43H72.82Z"/><path class="a" d="M111.12,131.07a6.75,6.75,0,0,0-1.46-4.67,5.57,5.57,0,0,0-4.34-1.61,5.9,5.9,0,0,0-4.34,1.57,5.78,5.78,0,0,0-1.59,4.32v13.43H97.16v-13a6.75,6.75,0,0,0-1.46-4.67,5.59,5.59,0,0,0-4.34-1.61A5.74,5.74,0,0,0,87,126.42a6.55,6.55,0,0,0-1.53,4.65v13H83.2v-21h2.22v2.49a7.82,7.82,0,0,1,6.24-2.75,8.09,8.09,0,0,1,4.07,1,6.77,6.77,0,0,1,2.69,2.86,8,8,0,0,1,3-2.86,8.72,8.72,0,0,1,4.18-1,8.89,8.89,0,0,1,3.15.53,6.93,6.93,0,0,1,2.41,1.48,7.72,7.72,0,0,1,2.19,5.85v13.43h-2.23Z"/><path class="a" d="M135.21,141.63a7.79,7.79,0,0,1-6.2,2.75,7.6,7.6,0,0,1-5.58-2,7.72,7.72,0,0,1-2.19-5.85V123.08h2.23v13a6.75,6.75,0,0,0,1.46,4.67,5.57,5.57,0,0,0,4.34,1.61,5.74,5.74,0,0,0,4.41-1.63,6.55,6.55,0,0,0,1.53-4.65v-13h2.22v21h-2.22Z"/><path class="a" d="M159.86,131.07a6.71,6.71,0,0,0-1.47-4.67,5.57,5.57,0,0,0-4.34-1.61,5.71,5.71,0,0,0-4.4,1.63,6.55,6.55,0,0,0-1.53,4.65v13h-2.23v-21h2.23v2.49a7.76,7.76,0,0,1,6.19-2.75,7.64,7.64,0,0,1,5.59,2,7.75,7.75,0,0,1,2.18,5.85v13.43h-2.22Z"/><path class="a" d="M170,113.05h2.75v2.75H170Zm.26,10h2.23v21h-2.23Z"/><path class="a" d="M192.71,143.7a9.38,9.38,0,0,1-3.71.68,9.49,9.49,0,0,1-3.88-.75,7.9,7.9,0,0,1-2.91-2.13,9.53,9.53,0,0,1-1.83-3.41,16.32,16.32,0,0,1,0-9,9.53,9.53,0,0,1,1.83-3.41,8,8,0,0,1,2.91-2.14,9.66,9.66,0,0,1,3.88-.74,9.38,9.38,0,0,1,3.71.68,9.67,9.67,0,0,1,3.23,2.55l-1.53,1.4a8.91,8.91,0,0,0-2.55-2.07,7.06,7.06,0,0,0-8.45,2.2,7.47,7.47,0,0,0-1.11,2.51,18.83,18.83,0,0,0,0,7,7.47,7.47,0,0,0,1.11,2.51,7.06,7.06,0,0,0,8.45,2.2,8.91,8.91,0,0,0,2.55-2.07l1.53,1.4A9.67,9.67,0,0,1,192.71,143.7Z"/><path class="a" d="M214.65,142a7.44,7.44,0,0,1-2.77,1.85,10.91,10.91,0,0,1-3.64.51,13.19,13.19,0,0,1-3.77-.44,5.63,5.63,0,0,1-2.43-1.48,5,5,0,0,1-1.13-1.84,6.65,6.65,0,0,1-.39-2.27,5.46,5.46,0,0,1,1.94-4.47,8.27,8.27,0,0,1,5.39-1.59h6.8v-2.36a5.12,5.12,0,0,0-1.33-3.83c-.89-.88-2.42-1.31-4.6-1.31a8.25,8.25,0,0,0-3.51.61,5.87,5.87,0,0,0-2.29,2l-1.62-1.4a7,7,0,0,1,3.08-2.55,12,12,0,0,1,4.34-.68c2.82,0,4.89.6,6.19,1.79a6.56,6.56,0,0,1,2,5.11v14.39h-2.23Zm-6.54-7.94q-5.37,0-5.37,4.23a3.66,3.66,0,0,0,1.31,3.1,6.93,6.93,0,0,0,4.19,1,13.92,13.92,0,0,0,2.77-.26,4.8,4.8,0,0,0,2.46-1.35c.79-.73,1.18-2.07,1.18-4v-2.7Z"/><path class="a" d="M227,142.57a6,6,0,0,1-1.29-3.95V124.74h-2.88v-1.66h2.88v-6.71h2.23v6.71h4.75v1.66h-4.75v13.92a3.83,3.83,0,0,0,.78,2.57,3,3,0,0,0,2.44.92h1.53v2h-1.92A4.61,4.61,0,0,1,227,142.57Z"/><path class="a" d="M239.08,113.05h2.75v2.75h-2.75Zm.27,10h2.22v21h-2.22Z"/><path class="a" d="M264,131.07a6.71,6.71,0,0,0-1.47-4.67,5.57,5.57,0,0,0-4.34-1.61,5.71,5.71,0,0,0-4.4,1.63,6.55,6.55,0,0,0-1.53,4.65v13H250v-21h2.23v2.49a7.78,7.78,0,0,1,6.2-2.75,7.64,7.64,0,0,1,5.58,2,7.75,7.75,0,0,1,2.18,5.85v13.43H264Z"/><path class="a" d="M289.52,145.29a11.2,11.2,0,0,1-.57,3.64,8.23,8.23,0,0,1-1.68,2.91,7.66,7.66,0,0,1-2.7,1.89,9.32,9.32,0,0,1-3.65.68,13.05,13.05,0,0,1-2.09-.15,7.29,7.29,0,0,1-1.72-.5,8.82,8.82,0,0,1-1.55-.88,17.32,17.32,0,0,1-1.57-1.26l1.48-1.49c.41.38.8.72,1.18,1a6.32,6.32,0,0,0,1.18.72,5.78,5.78,0,0,0,1.35.43,8.06,8.06,0,0,0,1.74.16,6.76,6.76,0,0,0,2.86-.55,5.29,5.29,0,0,0,2-1.53,6.27,6.27,0,0,0,1.15-2.31,10.61,10.61,0,0,0,.37-2.9v-3.75a6.84,6.84,0,0,1-2.9,2.4,9.33,9.33,0,0,1-3.34.57,8.24,8.24,0,0,1-3-.51,5.79,5.79,0,0,1-2.16-1.33,8,8,0,0,1-2.16-4,22.19,22.19,0,0,1,0-9.82,8,8,0,0,1,2.16-4,5.94,5.94,0,0,1,2.16-1.34,8.47,8.47,0,0,1,3-.5,9.33,9.33,0,0,1,3.34.57,6.84,6.84,0,0,1,2.9,2.4v-2.71h2.23Zm-2.23-11.69a26.34,26.34,0,0,0-.19-3.21,8.51,8.51,0,0,0-.83-2.83,5.15,5.15,0,0,0-1.81-2,6.7,6.7,0,0,0-6.2,0,5.15,5.15,0,0,0-1.81,2,8.51,8.51,0,0,0-.83,2.83,27.38,27.38,0,0,0,0,6.44,8.46,8.46,0,0,0,.83,2.81,5.15,5.15,0,0,0,1.81,2,6.7,6.7,0,0,0,6.2,0,5.15,5.15,0,0,0,1.81-2,8.46,8.46,0,0,0,.83-2.81A26.2,26.2,0,0,0,287.29,133.6Z"/><path class="a" d="M321.45,142a7.44,7.44,0,0,1-2.77,1.85,10.91,10.91,0,0,1-3.64.51,13.19,13.19,0,0,1-3.77-.44,5.54,5.54,0,0,1-2.42-1.48,4.86,4.86,0,0,1-1.14-1.84,6.65,6.65,0,0,1-.39-2.27,5.49,5.49,0,0,1,1.94-4.47,8.27,8.27,0,0,1,5.39-1.59h6.8v-2.36a5.12,5.12,0,0,0-1.33-3.83c-.88-.88-2.42-1.31-4.6-1.31a8.28,8.28,0,0,0-3.51.61,5.87,5.87,0,0,0-2.29,2l-1.62-1.4a7,7,0,0,1,3.08-2.55,12,12,0,0,1,4.34-.68q4.23,0,6.2,1.79a6.56,6.56,0,0,1,2,5.11v14.39h-2.23Zm-6.54-7.94q-5.37,0-5.37,4.23a3.66,3.66,0,0,0,1.31,3.1,7,7,0,0,0,4.19,1,13.92,13.92,0,0,0,2.77-.26,4.87,4.87,0,0,0,2.47-1.35q1.17-1.1,1.17-4v-2.7Z"/><path class="a" d="M342,125.14a5.61,5.61,0,0,0-2.16-.35,5.17,5.17,0,0,0-4.16,1.92,6,6,0,0,0-1.1,2,8.06,8.06,0,0,0-.37,2.42v13H332v-21h2.22v2.8a5.89,5.89,0,0,1,2.6-2.27,8.19,8.19,0,0,1,3.56-.79,8,8,0,0,1,2.72.44,6.47,6.47,0,0,1,2.34,1.57l-1.62,1.61A5.67,5.67,0,0,0,342,125.14Z"/><path class="a" d="M360.2,143.7a9.38,9.38,0,0,1-3.71.68,9.49,9.49,0,0,1-3.88-.75,7.9,7.9,0,0,1-2.91-2.13,9.53,9.53,0,0,1-1.83-3.41,16.32,16.32,0,0,1,0-9,9.53,9.53,0,0,1,1.83-3.41,8,8,0,0,1,2.91-2.14,9.66,9.66,0,0,1,3.88-.74,9.38,9.38,0,0,1,3.71.68,9.67,9.67,0,0,1,3.23,2.55l-1.53,1.4a8.91,8.91,0,0,0-2.55-2.07,7.06,7.06,0,0,0-8.45,2.2,7.47,7.47,0,0,0-1.11,2.51,18.83,18.83,0,0,0,0,7,7.47,7.47,0,0,0,1.11,2.51,7.06,7.06,0,0,0,8.45,2.2,8.91,8.91,0,0,0,2.55-2.07l1.53,1.4A9.67,9.67,0,0,1,360.2,143.7Z"/><path class="a" d="M383.93,131.07a6.75,6.75,0,0,0-1.46-4.67,5.59,5.59,0,0,0-4.34-1.61,5.74,5.74,0,0,0-4.41,1.63,6.55,6.55,0,0,0-1.53,4.65v13H370V113.05h2.22v12.52a7.79,7.79,0,0,1,6.2-2.75,7.67,7.67,0,0,1,5.72,2.08,7.87,7.87,0,0,1,2.05,5.78v13.43h-2.23Z"/><path class="a" d="M394.1,113.05h2.74v2.75H394.1Zm.26,10h2.22v21h-2.22Z"/><path class="a" d="M406.86,142.57a6,6,0,0,1-1.29-3.95V124.74h-2.88v-1.66h2.88v-6.71h2.22v6.71h4.76v1.66h-4.76v13.92a3.83,3.83,0,0,0,.79,2.57,3,3,0,0,0,2.44.92h1.53v2h-1.92A4.61,4.61,0,0,1,406.86,142.57Z"/><path class="a" d="M420.1,134.08q0,4.08,1.72,6.21a6.23,6.23,0,0,0,5.13,2.12,7.46,7.46,0,0,0,3.16-.59,9.26,9.26,0,0,0,2.64-1.94l1.66,1.31a15.35,15.35,0,0,1-1.59,1.39,9.52,9.52,0,0,1-1.7,1,8,8,0,0,1-1.95.59,12.8,12.8,0,0,1-2.35.2,8.19,8.19,0,0,1-6.66-2.75c-1.52-1.84-2.29-4.51-2.29-8s.75-6.09,2.23-8a7.44,7.44,0,0,1,6.19-2.82,7.61,7.61,0,0,1,6.2,2.69c1.48,1.79,2.23,4.31,2.23,7.57v1Zm12.39-1.79q0-.73-.09-1.29c0-.36-.06-.69-.11-1a5.3,5.3,0,0,0-.19-.83c-.09-.26-.21-.55-.35-.87a5.69,5.69,0,0,0-2.16-2.6,6.3,6.3,0,0,0-6.59,0,5.69,5.69,0,0,0-2.16,2.6c-.12.35-.22.65-.3.92a4.46,4.46,0,0,0-.2.8c0,.28-.09.59-.13.94s-.08.79-.11,1.31Z"/><path class="a" d="M453.65,143.7a9.34,9.34,0,0,1-3.71.68,9.52,9.52,0,0,1-3.88-.75,7.87,7.87,0,0,1-2.9-2.13,9.7,9.7,0,0,1-1.84-3.41,16.32,16.32,0,0,1,0-9,9.7,9.7,0,0,1,1.84-3.41,8,8,0,0,1,2.9-2.14,9.69,9.69,0,0,1,3.88-.74,9.34,9.34,0,0,1,3.71.68,9.58,9.58,0,0,1,3.23,2.55l-1.53,1.4a8.91,8.91,0,0,0-2.55-2.07,7,7,0,0,0-8.44,2.2,7.3,7.3,0,0,0-1.12,2.51,19.41,19.41,0,0,0,0,7,7.3,7.3,0,0,0,1.12,2.51,7,7,0,0,0,8.44,2.2,8.91,8.91,0,0,0,2.55-2.07l1.53,1.4A9.58,9.58,0,0,1,453.65,143.7Z"/><path class="a" d="M465.23,142.57a6,6,0,0,1-1.28-3.95V124.74h-2.88v-1.66H464v-6.71h2.22v6.71h4.76v1.66h-4.76v13.92a3.78,3.78,0,0,0,.79,2.57,3,3,0,0,0,2.44.92h1.53v2H469A4.64,4.64,0,0,1,465.23,142.57Z"/><path class="a" d="M491.3,141.63a7.77,7.77,0,0,1-6.19,2.75,7.64,7.64,0,0,1-5.59-2,7.75,7.75,0,0,1-2.18-5.85V123.08h2.23v13A6.7,6.7,0,0,0,481,140.8a5.57,5.57,0,0,0,4.34,1.61,5.71,5.71,0,0,0,4.4-1.63,6.55,6.55,0,0,0,1.53-4.65v-13h2.23v21H491.3Z"/><path class="a" d="M512,125.14a5.54,5.54,0,0,0-2.16-.35,5.29,5.29,0,0,0-2.4.52,5.35,5.35,0,0,0-1.76,1.4,5.84,5.84,0,0,0-1.09,2,7.75,7.75,0,0,0-.37,2.42v13H502v-21h2.23v2.8a5.86,5.86,0,0,1,2.59-2.27,8.23,8.23,0,0,1,3.56-.79,8,8,0,0,1,2.72.44,6.47,6.47,0,0,1,2.34,1.57l-1.62,1.61A5.67,5.67,0,0,0,512,125.14Z"/><path class="a" d="M519.49,134.08q0,4.08,1.72,6.21a6.23,6.23,0,0,0,5.12,2.12,7.48,7.48,0,0,0,3.17-.59,9.26,9.26,0,0,0,2.64-1.94l1.66,1.31a15.42,15.42,0,0,1-1.6,1.39,9.18,9.18,0,0,1-1.7,1,7.84,7.84,0,0,1-1.94.59,12.91,12.91,0,0,1-2.36.2,8.19,8.19,0,0,1-6.65-2.75c-1.53-1.84-2.29-4.51-2.29-8s.74-6.09,2.23-8a7.43,7.43,0,0,1,6.19-2.82,7.62,7.62,0,0,1,6.2,2.69q2.22,2.68,2.22,7.57v1Zm12.39-1.79q0-.73-.09-1.29c0-.36-.07-.69-.11-1a4.38,4.38,0,0,0-.2-.83,6.87,6.87,0,0,0-.35-.87,5.57,5.57,0,0,0-2.16-2.6,6.28,6.28,0,0,0-6.58,0,5.57,5.57,0,0,0-2.16,2.6l-.31.92a4.43,4.43,0,0,0-.19.8c-.05.28-.09.59-.14.94s-.08.79-.1,1.31Z"/><path class="a" d="M147.5,0h9.34V29.68h0a26.5,26.5,0,0,1,20.38-9.6c17.62,0,29.49,12.47,29.49,29.49,0,16.78-12.35,29.49-28.05,29.49-10.07,0-18.34-5-21.82-11.39h0v10H147.5ZM178,70.43c12.1,0,19.89-9.11,19.89-20.85S190.07,28.72,178,28.72s-19.9,9.11-19.9,20.86S165.86,70.43,178,70.43Z"/><path class="a" d="M258.52,21.52h9.35v56.1h-9.35Z"/><rect class="b" x="258.71" width="9.37" height="9.37"/><path class="a" d="M245.42,22.55c-8.29-.2-16.88,4.71-19.41,9.64V21.53h-8.78v56.1h9.35V57.05c0-2.27-.54-14.29,5.74-20.09,3.86-3.56,9.49-5.69,16.23-5.69V22.8A21.34,21.34,0,0,0,245.42,22.55Z"/><path class="a" d="M312.49,69.89a18.37,18.37,0,0,1-4.48.5,20.86,20.86,0,0,1-21.16-20.82A21.13,21.13,0,0,1,312.5,28.88c4,.72,7.57,3.19,10.58,5.75L328.63,29c-5.63-6.12-13.3-8.88-21.57-8.88-17.26,0-29,12.47-29,29.49,0,17.26,11.63,29.49,29,29.49,8.15,0,15.82-2.76,21.21-9l-6.08-6C319.31,66.72,316.46,68.93,312.49,69.89Z"/><polygon class="a" points="386.56 77.62 354.69 47.05 381.78 21.52 368.8 21.52 347.95 41.69 347.95 0 338.6 0 338.6 77.62 347.95 77.62 347.95 52.42 374.01 77.62 386.56 77.62"/></svg>