<?xml version="1.0" encoding="UTF-8" standalone="no"?>
<svg
   xmlns:dc="http://purl.org/dc/elements/1.1/"
   xmlns:cc="http://creativecommons.org/ns#"
   xmlns:rdf="http://www.w3.org/1999/02/22-rdf-syntax-ns#"
   xmlns:svg="http://www.w3.org/2000/svg"
   xmlns="http://www.w3.org/2000/svg"
   viewBox="0 0 1122.52 793.70667"
   height="793.70667"
   width="1122.52"
   xml:space="preserve"
   id="svg2"
   version="1.1"><metadata
     id="metadata8"><rdf:RDF><cc:Work
         rdf:about=""><dc:format>image/svg+xml</dc:format><dc:type
           rdf:resource="http://purl.org/dc/dcmitype/StillImage" /></cc:Work></rdf:RDF></metadata><defs
     id="defs6"><clipPath
       id="clipPath20"
       clipPathUnits="userSpaceOnUse"><path
         id="path18"
         d="M 0,595.28 H 841.89 V 0 H 0 Z" /></clipPath><clipPath
       id="clipPath26"
       clipPathUnits="userSpaceOnUse"><path
         id="path24"
         d="M 0,0 H 841 V 595 H 0 Z" /></clipPath></defs><g
     transform="matrix(1.3333333,0,0,-1.3333333,0,793.70667)"
     id="g10"><g
       id="g12" /><g
       id="g14"><g
         clip-path="url(#clipPath20)"
         id="g16"><g
           clip-path="url(#clipPath26)"
           id="g22"><path
             id="path28"
             style="fill:#231f20;fill-opacity:1;fill-rule:nonzero;stroke:none"
             d="m 251.5724,128.2237 h 18.107 c 14.94,0 26.33,-11.166 26.33,-26.403 0,-15.241 -11.39,-26.407 -26.33,-26.407 h -18.107 z m 6.789,-6.793 v -39.232 h 11.318 c 11.318,0 19.538,8.155 19.538,19.622 0,11.467 -8.22,19.61 -19.538,19.61 z" /><path
             id="path30"
             style="fill:#231f20;fill-opacity:1;fill-rule:nonzero;stroke:none"
             d="m 368.1351,128.2225 -24.598,-52.81 h 7.472 l 4.228,9.277 h 32.894 l 4.224,-9.277 h 7.468 l -24.59,52.81 z m 3.545,-8.223 13.207,-28.513 h -26.406 z" /><path
             id="path32"
             style="fill:#231f20;fill-opacity:1;fill-rule:nonzero;stroke:none"
             d="m 458.6765,75.4124 h -6.793 v 52.81 h 20.298 c 10.257,0 17.801,-7.545 17.801,-17.802 0,-7.166 -3.697,-12.978 -9.353,-15.84 l 15.615,-19.168 h -8.83 l -14.027,17.203 h -14.711 z m 11.539,32.134 5.889,-7.463 c 4.067,1.583 7.086,5.506 7.086,10.337 0,6.411 -4.904,11.009 -11.009,11.009 h -13.505 v -22.022 h 9.349 l -3.019,3.77 z" /><path
             id="path34"
             style="fill:#231f20;fill-opacity:1;fill-rule:nonzero;stroke:none"
             d="m 580.7356,128.2225 -26.029,-26.33 v 26.33 h -6.789 v -52.81 h 6.789 v 16.825 l 7.998,8.071 19.016,-24.896 h 8.597 l -22.781,29.799 22.781,23.011 z" /><path
             id="path36"
             style="fill:#231f20;fill-opacity:1;fill-rule:nonzero;stroke:none"
             d="m 371.163,287.7858 24.753,24.753 h -1.432 l 52.698,52.697 c 0,-0.004 0.004,-0.004 0.004,-0.008 0.161,-0.317 0.302,-0.647 0.45,-0.969 l 20.286,20.286 c -0.201,0.277 -0.406,0.547 -0.611,0.82 l 79.062,79.067 c -0.229,0.249 -0.474,0.486 -0.703,0.74 L 306.286,225.7878 c 0.249,-0.229 0.486,-0.475 0.74,-0.704 l 62.706,62.702 z m -5.026,83.204 38.504,38.504 h -1.436 l 92.883,92.883 c -0.322,0.157 -0.635,0.33 -0.957,0.486 L 268.59,276.3218 c 0.157,-0.321 0.33,-0.635 0.491,-0.957 l 97.056,97.057 z m 49.32,-83.027 62.875,62.875 c -0.012,0.466 -0.012,0.944 -0.032,1.403 l 87,87 c -0.185,0.297 -0.382,0.583 -0.567,0.88 l -233.397,-233.4 c 0.298,-0.185 0.583,-0.382 0.881,-0.563 l 81.724,81.72 c 0.507,0.025 1.014,0.057 1.516,0.085 m -22.235,-0.177 25.625,25.625 c -0.551,-0.08 -1.106,-0.161 -1.665,-0.233 l 33.261,33.261 c -0.028,-0.515 -0.056,-1.03 -0.101,-1.532 l 24.986,24.986 c -0.112,0.361 -0.233,0.723 -0.354,1.077 l 81.383,81.387 c -0.205,0.273 -0.426,0.535 -0.635,0.808 l -237.43,-237.429 c 0.274,-0.209 0.535,-0.431 0.809,-0.636 l 72.685,72.686 z m -27.085,39.087 26.815,26.819 v 1.432 l 28.335,28.335 c 0.39,-0.084 0.78,-0.173 1.17,-0.265 l 20.298,20.297 c -0.346,0.137 -0.696,0.261 -1.045,0.39 l 81.616,81.616 c -0.274,0.209 -0.535,0.43 -0.809,0.64 L 285.321,248.9398 c 0.205,-0.277 0.43,-0.539 0.635,-0.812 l 80.181,80.181 z m 0,-22.059 26.815,26.82 v 1.431 l 43.969,43.969 c 0.281,-0.193 0.559,-0.394 0.832,-0.599 l 19.26,19.26 c -0.273,0.205 -0.563,0.394 -0.84,0.591 l 79.183,79.183 c -0.249,0.233 -0.499,0.467 -0.752,0.696 L 295.293,236.8528 c 0.229,-0.253 0.462,-0.502 0.691,-0.752 l 70.153,70.149 z m 78.616,-9.609 28.882,28.882 c 0.358,0.8 0.692,1.612 1.006,2.436 l 98.499,98.5 c -0.16,0.322 -0.329,0.635 -0.49,0.957 L 345.478,198.8078 c 0.321,-0.161 0.635,-0.334 0.957,-0.491 l 95.737,95.738 c 0.872,0.369 1.733,0.747 2.581,1.15 m -78.616,53.727 26.815,26.815 v 1.435 l 7.555,7.556 h 1.436 l 23.281,23.285 c -0.41,0.064 -0.816,0.136 -1.231,0.201 l 86.265,86.264 c -0.298,0.185 -0.583,0.382 -0.881,0.563 L 276.403,262.0798 c 0.185,-0.297 0.382,-0.587 0.567,-0.88 l 89.167,89.163 z m 0,44.113 16.445,16.449 h -1.435 l 99.573,99.574 c -0.346,0.128 -0.687,0.277 -1.037,0.406 L 261.98,291.7708 c 0.128,-0.35 0.277,-0.688 0.41,-1.038 l 103.747,103.747 z m 96.722,121.664 -206.114,-206.115 c 0.1,-0.382 0.201,-0.764 0.301,-1.142 l 206.959,206.955 c -0.382,0.101 -0.76,0.205 -1.146,0.302 m -129.332,-19.043 -57.735,-57.74 c -0.676,-1.118 -1.307,-2.268 -1.959,-3.402 l 63.1,63.1 c -1.138,-0.651 -2.284,-1.282 -3.406,-1.958 m 39.385,17.326 -114.451,-114.451 c -0.197,-0.671 -0.381,-1.343 -0.57,-2.018 l 117.044,117.044 c -0.676,-0.189 -1.351,-0.374 -2.023,-0.575 m 50.993,6.876 -172.319,-172.315 c 0.008,-0.471 0.024,-0.941 0.036,-1.412 l 173.694,173.691 c -0.47,0.016 -0.941,0.028 -1.411,0.036 m 20.482,-1.576 -191.225,-191.222 c 0.06,-0.426 0.1,-0.856 0.165,-1.283 l 192.343,192.344 c -0.426,0.06 -0.856,0.104 -1.283,0.161 m -43.715,0.402 -147.908,-147.909 c -0.068,-0.555 -0.153,-1.102 -0.213,-1.66 l 149.778,149.778 c -0.555,-0.061 -1.102,-0.145 -1.657,-0.209 M 579.369,410.6398 360.817,192.0888 c 0.346,-0.133 0.688,-0.282 1.038,-0.41 l 217.924,217.924 c -0.133,0.35 -0.278,0.687 -0.41,1.037 m -72.187,-205.978 59.613,59.614 c 0.668,1.122 1.315,2.26 1.959,3.402 l -64.974,-64.974 c 1.142,0.639 2.276,1.291 3.402,1.958 m -66.534,-22.42 148.564,148.564 c 0.064,0.554 0.153,1.101 0.213,1.66 L 438.991,182.0328 c 0.555,0.06 1.102,0.144 1.657,0.209 m 27.632,5.573 115.359,115.359 c 0.197,0.675 0.386,1.347 0.575,2.022 L 466.261,187.2438 c 0.676,0.185 1.347,0.378 2.019,0.571 M 584.741,393.9538 377.5,186.7168 c 0.378,-0.101 0.748,-0.225 1.13,-0.322 l 206.428,206.433 c -0.096,0.378 -0.217,0.748 -0.317,1.126 m 3.775,-18.279 -192.733,-192.738 c 0.422,-0.06 0.856,-0.1 1.283,-0.161 l 191.615,191.616 c -0.06,0.426 -0.1,0.856 -0.165,1.283 m 1.749,-20.31 -174.173,-174.177 c 0.471,-0.012 0.941,-0.024 1.412,-0.036 l 172.797,172.802 c -0.008,0.47 -0.02,0.941 -0.036,1.411" /></g></g></g></g></svg>