<svg id="Layer_1" data-name="Layer 1" xmlns="http://www.w3.org/2000/svg" viewBox="0 0 316.86 139.99"><defs><style>.cls-1{fill:#1C75BC;}</style></defs><title>kek-logoArtboard 1</title><g id="_Group_" data-name="&lt;Group&gt;"><path id="_Compound_Path_" data-name="&lt;Compound Path&gt;" class="cls-1" d="M70.86,58.19,104.15,39H70.86ZM98.55,40.48l-1.38.8v-.8Zm-2.88,0v1.66L79.49,51.48v-11Zm-23.31,0H78V52.35L72.36,55.6Z"/><path id="_Compound_Path_2" data-name="&lt;Compound Path&gt;" class="cls-1" d="M79.49,28.35H72.36V24.8h-5v3.55h-2v-2.8L61.66,11,54.21,3.55H36.93V0h-5V3.55H25.33L4.07,17.72H0V54.65H4.07L25.33,68.82h6.56v3.55h5V68.82h9.13v7.09h3.55V93.6l-19,19a15,15,0,1,0,3.56,3.56L52.53,97.82,112.75,140l2.89-4.14L56.15,94.19l3.62-3.61L56.2,87l-1.55,1.55V72.37H61.3L72.09,61.58l12-6.93H97.17V47.1l11.47-6.62h9.79v-5H79.49ZM78,29.85v5.58H72.36V29.85Zm-12.71,0h2v2h-2Zm2,3.54V59.21l-8.11,8.11h-3.5l5.95-5.95L65.26,47V33.39ZM1.5,19.22h2V53.15h-2Zm24.28,48.1L5,53.5V18.87L25.78,5.05h6.11V67.32Zm9.65,3.55h-2V1.5h2Zm1.5-3.55V5.05H53.59l6.72,6.72,3.47,13.88V46.72L60.31,60.6l-6.72,6.72H36.93ZM22,138.19a13.43,13.43,0,1,1,13.42-13.42A13.43,13.43,0,0,1,22,138.19ZM56.2,89.13l1.44,1.45L53.82,94.4l59.73,41.82-1.17,1.68L52.87,96.23l-.51-.36L33.25,115a14.18,14.18,0,0,0-1.45-1.45L51.11,94.22V75.91h2V92.18ZM53.15,74.41H47.56V68.82h5.59v5.59ZM95.67,53.15h-9l9-5.18Zm21.26-16.22v2h-8.69l-37,21.35L60.68,70.87h-6V68.82h5.18l9-9V26.3h2v2.05h0v8.58h46.12Z"/><path id="_Compound_Path_3" data-name="&lt;Compound Path&gt;" class="cls-1" d="M22,116.93a7.84,7.84,0,1,0,7.84,7.84A7.85,7.85,0,0,0,22,116.93Zm0,14.17a6.34,6.34,0,1,1,6.34-6.33A6.35,6.35,0,0,1,22,131.1Z"/><path id="_Compound_Path_4" data-name="&lt;Compound Path&gt;" class="cls-1" d="M22,122.25a2.52,2.52,0,1,0,2.52,2.52A2.52,2.52,0,0,0,22,122.25Zm0,3.54a1,1,0,1,1,1-1A1,1,0,0,1,22,125.79Z"/><path id="_Path_" data-name="&lt;Path&gt;" class="cls-1" d="M149.55,32.64h1.39a.48.48,0,0,0,.29-.09.31.31,0,0,0,.12-.26V24.38h.88l6.36,8a.6.6,0,0,0,.45.24h1.69a.4.4,0,0,0,.28-.1.39.39,0,0,0,.12-.3A.36.36,0,0,0,161,32l-6.92-8.74,6.94-8.61a.36.36,0,0,0,.11-.26.36.36,0,0,0-.09-.26.41.41,0,0,0-.28-.09H159.1a.66.66,0,0,0-.49.24l-6.49,8.12h-.77v-8a.4.4,0,0,0-.11-.27A.36.36,0,0,0,151,14h-1.45a.34.34,0,0,0-.37.37V32.29a.31.31,0,0,0,.12.26A.45.45,0,0,0,149.55,32.64Z"/><path id="_Compound_Path_5" data-name="&lt;Compound Path&gt;" class="cls-1" d="M169.41,32.11a6.57,6.57,0,0,0,6.57,0,6.63,6.63,0,0,0,2.4-2.39,6.41,6.41,0,0,0,.88-3.27V20.2a6.41,6.41,0,0,0-.88-3.27,6.63,6.63,0,0,0-2.4-2.39,6.57,6.57,0,0,0-6.57,0,6.63,6.63,0,0,0-2.4,2.39,6.32,6.32,0,0,0-.89,3.27v6.25a6.32,6.32,0,0,0,.89,3.27A6.63,6.63,0,0,0,169.41,32.11ZM168.32,20.2a4.41,4.41,0,0,1,.59-2.21,4.49,4.49,0,0,1,1.59-1.65,4.18,4.18,0,0,1,4.38,0A4.49,4.49,0,0,1,176.47,18a4.41,4.41,0,0,1,.59,2.21v6.25a4.41,4.41,0,0,1-.59,2.21,4.49,4.49,0,0,1-1.59,1.65,4.18,4.18,0,0,1-4.38,0,4.49,4.49,0,0,1-1.59-1.65,4.41,4.41,0,0,1-.59-2.21Z"/><path id="_Compound_Path_6" data-name="&lt;Compound Path&gt;" class="cls-1" d="M186.74,32.64h1.45a.34.34,0,0,0,.37-.37V24.81h2.09l4.7,7.59a.43.43,0,0,0,.4.24h1.37a.52.52,0,0,0,.36-.13.49.49,0,0,0,.07-.62l-4.46-7.18a5.34,5.34,0,0,0,3.12-1.85,5.43,5.43,0,0,0,.5-6.16,5.25,5.25,0,0,0-2-2A5.37,5.37,0,0,0,192,14h-4.67a.9.9,0,0,0-.68.28.92.92,0,0,0-.29.68v17.3a.4.4,0,0,0,.11.27A.36.36,0,0,0,186.74,32.64Zm1.82-16.57h3.27a3.26,3.26,0,0,1,2.4.95,3.29,3.29,0,0,1,1,2.43,3.17,3.17,0,0,1-1,2.36,3.25,3.25,0,0,1-2.4.94h-3.27Z"/><path id="_Path_2" data-name="&lt;Path&gt;" class="cls-1" d="M202.86,16.07h4.63v16.2a.4.4,0,0,0,.11.27.36.36,0,0,0,.27.1h1.45a.35.35,0,0,0,.26-.1.36.36,0,0,0,.11-.27V16.07h4.64a.33.33,0,0,0,.27-.11.36.36,0,0,0,.11-.26V14.38a.4.4,0,0,0-.11-.27.36.36,0,0,0-.27-.1H202.86a.36.36,0,0,0-.27.1.4.4,0,0,0-.11.27V15.7a.36.36,0,0,0,.11.26A.33.33,0,0,0,202.86,16.07Z"/><path id="_Path_3" data-name="&lt;Path&gt;" class="cls-1" d="M224.68,12.48h.65a.87.87,0,0,0,.69-.32l2.17-2.5a.33.33,0,0,0,.11-.27.3.3,0,0,0-.11-.25.39.39,0,0,0-.26-.09h-1.8a.75.75,0,0,0-.75.51l-1,2.41a.38.38,0,0,0,0,.36A.3.3,0,0,0,224.68,12.48Z"/><path id="_Compound_Path_7" data-name="&lt;Compound Path&gt;" class="cls-1" d="M218.25,32.64h1.31a.65.65,0,0,0,.32-.09.36.36,0,0,0,.19-.26l1.5-4.66h7l1.5,4.66a.49.49,0,0,0,.21.26.55.55,0,0,0,.3.09h1.32a.43.43,0,0,0,.31-.12.38.38,0,0,0,.12-.28.44.44,0,0,0,0-.19l-5.82-17.69a.43.43,0,0,0-.2-.26.59.59,0,0,0-.31-.09h-1.77a.61.61,0,0,0-.31.09.52.52,0,0,0-.2.26l-5.82,17.69a.47.47,0,0,0,0,.42A.44.44,0,0,0,218.25,32.64Zm6.81-15.84,2.87,8.87h-5.74Z"/><path id="_Compound_Path_8" data-name="&lt;Compound Path&gt;" class="cls-1" d="M238.65,32.64h1.45a.36.36,0,0,0,.27-.1.4.4,0,0,0,.11-.27V24.81h2.09l4.69,7.59a.43.43,0,0,0,.4.24H249a.52.52,0,0,0,.36-.13.49.49,0,0,0,.07-.62L245,24.71a5.34,5.34,0,0,0,3.11-1.85,5.22,5.22,0,0,0,1.23-3.44,5.38,5.38,0,0,0-2.69-4.69,5.43,5.43,0,0,0-2.75-.72h-4.67a1,1,0,0,0-1,1v17.3a.39.39,0,0,0,.1.27A.38.38,0,0,0,238.65,32.64Zm1.83-16.57h3.27a3.29,3.29,0,0,1,2.4.95,3.32,3.32,0,0,1,.95,2.43,3.2,3.2,0,0,1-.95,2.36,3.28,3.28,0,0,1-2.4.94h-3.27Z"/><path id="_Path_4" data-name="&lt;Path&gt;" class="cls-1" d="M257.68,32.62a9.7,9.7,0,0,0,2.66.37,7.41,7.41,0,0,0,3.2-.66,5.08,5.08,0,0,0,2.18-1.89,5.2,5.2,0,0,0,.79-2.89,4.67,4.67,0,0,0-.92-2.9,5.5,5.5,0,0,0-2.5-1.79l-1.81-.7a20.21,20.21,0,0,1-2-.89,3.5,3.5,0,0,1-1.19-1,2.5,2.5,0,0,1-.49-1.6,2.71,2.71,0,0,1,1-2.2,4,4,0,0,1,2.62-.8,7,7,0,0,1,3.59,1.07.38.38,0,0,0,.32.06.4.4,0,0,0,.24-.22l.59-1.1a.31.31,0,0,0,0-.28.29.29,0,0,0-.15-.2,8,8,0,0,0-2.15-1,8.86,8.86,0,0,0-2.51-.36,7.39,7.39,0,0,0-2.9.56,4.74,4.74,0,0,0-2.1,1.73,4.91,4.91,0,0,0-.79,2.83,4.55,4.55,0,0,0,.75,2.71,5.12,5.12,0,0,0,1.77,1.59,22.74,22.74,0,0,0,2.71,1.2c.85.34,1.52.63,2,.88a3.62,3.62,0,0,1,1.2,1,2.53,2.53,0,0,1,.49,1.59,2.84,2.84,0,0,1-1.1,2.34,4.43,4.43,0,0,1-2.82.87,7.67,7.67,0,0,1-3.91-1.23.38.38,0,0,0-.22,0,.41.41,0,0,0-.37.24l-.62,1.2a.36.36,0,0,0,0,.27.28.28,0,0,0,.14.19A7.61,7.61,0,0,0,257.68,32.62Z"/><path id="_Compound_Path_9" data-name="&lt;Compound Path&gt;" class="cls-1" d="M277.84,3.55H138.23V40.48H277.84ZM276.34,39H139.73V5.05H276.34Z"/><path id="_Path_5" data-name="&lt;Path&gt;" class="cls-1" d="M161.16,113.57a.37.37,0,0,0-.09-.26.41.41,0,0,0-.28-.09H159.1a.66.66,0,0,0-.49.24l-6.49,8.12h-.77v-8a.36.36,0,0,0-.11-.26.33.33,0,0,0-.27-.11h-1.45a.36.36,0,0,0-.27.11.35.35,0,0,0-.1.26v17.92a.3.3,0,0,0,.12.25.45.45,0,0,0,.28.09h1.39a.48.48,0,0,0,.29-.09.3.3,0,0,0,.12-.25V123.6h.88l6.36,8a.6.6,0,0,0,.45.24h1.69a.4.4,0,0,0,.28-.1.43.43,0,0,0,0-.57l-6.92-8.74,6.94-8.6A.4.4,0,0,0,161.16,113.57Z"/><path id="_Path_6" data-name="&lt;Path&gt;" class="cls-1" d="M168.8,111.34h1.29a.33.33,0,0,0,.27-.11.35.35,0,0,0,.1-.26v-2.34a.35.35,0,0,0-.1-.26.33.33,0,0,0-.27-.11H168.8a.36.36,0,0,0-.27.11.35.35,0,0,0-.1.26V111a.35.35,0,0,0,.1.26A.36.36,0,0,0,168.8,111.34Z"/><path id="_Compound_Path_10" data-name="&lt;Compound Path&gt;" class="cls-1" d="M176,113.75a6.57,6.57,0,0,0-6.57,0,6.63,6.63,0,0,0-2.4,2.39,6.32,6.32,0,0,0-.89,3.27v6.25a6.32,6.32,0,0,0,.89,3.27,6.63,6.63,0,0,0,2.4,2.39,6.57,6.57,0,0,0,6.57,0,6.63,6.63,0,0,0,2.4-2.39,6.41,6.41,0,0,0,.88-3.27v-6.25a6.41,6.41,0,0,0-.88-3.27A6.63,6.63,0,0,0,176,113.75Zm1.08,11.91a4.41,4.41,0,0,1-.59,2.21,4.49,4.49,0,0,1-1.59,1.65,4.18,4.18,0,0,1-4.38,0,4.49,4.49,0,0,1-1.59-1.65,4.41,4.41,0,0,1-.59-2.21v-6.25a4.43,4.43,0,0,1,.59-2.21,4.49,4.49,0,0,1,1.59-1.65,4.18,4.18,0,0,1,4.38,0,4.49,4.49,0,0,1,1.59,1.65,4.43,4.43,0,0,1,.59,2.21Z"/><path id="_Path_7" data-name="&lt;Path&gt;" class="cls-1" d="M175.29,111.34h1.29a.33.33,0,0,0,.27-.11.35.35,0,0,0,.1-.26v-2.34a.35.35,0,0,0-.1-.26.33.33,0,0,0-.27-.11h-1.29a.33.33,0,0,0-.27.11.35.35,0,0,0-.1.26V111a.35.35,0,0,0,.1.26A.33.33,0,0,0,175.29,111.34Z"/><path id="_Path_8" data-name="&lt;Path&gt;" class="cls-1" d="M196.1,129.79h-8.53l8.74-15.1a.88.88,0,0,0,.11-.45,1.06,1.06,0,0,0-.25-.71.81.81,0,0,0-.66-.31H185.37a.38.38,0,0,0-.37.37v1.32a.35.35,0,0,0,.11.27.35.35,0,0,0,.26.1h8.1l-8.69,15.1a.82.82,0,0,0-.13.46,1.07,1.07,0,0,0,.27.71.83.83,0,0,0,.64.3H196.1a.34.34,0,0,0,.37-.37v-1.31a.36.36,0,0,0-.1-.27A.37.37,0,0,0,196.1,129.79Z"/><path id="_Compound_Path_11" data-name="&lt;Compound Path&gt;" class="cls-1" d="M211.33,114a5.78,5.78,0,0,0-3-.78h-4.5a1,1,0,0,0-1,1v17.3a.37.37,0,0,0,.11.27.36.36,0,0,0,.27.1h1.44a.36.36,0,0,0,.27-.1.37.37,0,0,0,.11-.27v-6.73h3.27a5.86,5.86,0,0,0,5.07-2.87,5.83,5.83,0,0,0,0-5.79A5.74,5.74,0,0,0,211.33,114Zm.15,6.83a3.62,3.62,0,0,1-1.36,1.36,3.68,3.68,0,0,1-1.87.49h-3.14v-7.4h3.14A3.69,3.69,0,0,1,212,119,3.61,3.61,0,0,1,211.48,120.83Z"/><path id="_Compound_Path_12" data-name="&lt;Compound Path&gt;" class="cls-1" d="M230.11,113.75a6.57,6.57,0,0,0-6.57,0,6.63,6.63,0,0,0-2.4,2.39,6.32,6.32,0,0,0-.88,3.27v6.25a6.32,6.32,0,0,0,.88,3.27,6.63,6.63,0,0,0,2.4,2.39,6.57,6.57,0,0,0,6.57,0,6.63,6.63,0,0,0,2.4-2.39,6.32,6.32,0,0,0,.89-3.27v-6.25a6.32,6.32,0,0,0-.89-3.27A6.63,6.63,0,0,0,230.11,113.75Zm1.09,11.91a4.41,4.41,0,0,1-.59,2.21,4.6,4.6,0,0,1-1.6,1.65,4.16,4.16,0,0,1-4.37,0,4.49,4.49,0,0,1-1.59-1.65,4.31,4.31,0,0,1-.59-2.21v-6.25a4.33,4.33,0,0,1,.59-2.21,4.49,4.49,0,0,1,1.59-1.65,4.16,4.16,0,0,1,4.37,0,4.6,4.6,0,0,1,1.6,1.65,4.43,4.43,0,0,1,.59,2.21Z"/><path id="_Path_9" data-name="&lt;Path&gt;" class="cls-1" d="M253.53,113.22h-1.34a.36.36,0,0,0-.27.11.35.35,0,0,0-.1.26V128.4l-8.48-14.81a.78.78,0,0,0-.29-.28.93.93,0,0,0-.4-.09h-1.58a.54.54,0,0,0-.41.16.58.58,0,0,0-.16.4v17.7a.37.37,0,0,0,.11.27.36.36,0,0,0,.27.1h1.34a.34.34,0,0,0,.37-.37V116.7L251,131.48a.71.71,0,0,0,.29.28,1,1,0,0,0,.41.09h1.61a.54.54,0,0,0,.4-.16.52.52,0,0,0,.16-.4v-17.7a.36.36,0,0,0-.11-.26A.33.33,0,0,0,253.53,113.22Z"/><path id="_Path_10" data-name="&lt;Path&gt;" class="cls-1" d="M272,113.22H260.56a.33.33,0,0,0-.27.11.36.36,0,0,0-.11.26v1.32a.39.39,0,0,0,.11.27.36.36,0,0,0,.27.1h4.64v16.2a.33.33,0,0,0,.11.27.35.35,0,0,0,.26.1H267a.36.36,0,0,0,.27-.1.37.37,0,0,0,.11-.27v-16.2H272a.35.35,0,0,0,.26-.1.35.35,0,0,0,.11-.27v-1.32a.38.38,0,0,0-.37-.37Z"/><path id="_Compound_Path_13" data-name="&lt;Compound Path&gt;" class="cls-1" d="M138.23,139.69H281.42V102.76H138.23Zm1.5-35.43H279.92v33.93H139.73Z"/><path id="_Path_11" data-name="&lt;Path&gt;" class="cls-1" d="M153.87,62.08h.64a.85.85,0,0,0,.7-.32l2.17-2.49a.37.37,0,0,0,.11-.27.31.31,0,0,0-.11-.25.36.36,0,0,0-.27-.1h-1.8a.77.77,0,0,0-.75.51l-1,2.41a.47.47,0,0,0,0,.37A.31.31,0,0,0,153.87,62.08Z"/><path id="_Path_12" data-name="&lt;Path&gt;" class="cls-1" d="M150.11,82.25h8.82a.38.38,0,0,0,.38-.38V80.56a.38.38,0,0,0-.38-.38h-7.58V73.43h5.79a.39.39,0,0,0,.27-.11.36.36,0,0,0,.1-.27V71.79a.36.36,0,0,0-.1-.27.38.38,0,0,0-.27-.1h-5.79V65.68h7.58a.38.38,0,0,0,.38-.38V64a.38.38,0,0,0-.38-.38h-8.82a1,1,0,0,0-.68.28.94.94,0,0,0-.28.69v16.7a.94.94,0,0,0,.28.69A1,1,0,0,0,150.11,82.25Z"/><path id="_Compound_Path_14" data-name="&lt;Compound Path&gt;" class="cls-1" d="M166.25,82.25h1.45a.38.38,0,0,0,.38-.38V75.14h3.27a5.86,5.86,0,0,0,5.07-2.87,5.83,5.83,0,0,0,0-5.79,5.9,5.9,0,0,0-2.12-2.09,5.78,5.78,0,0,0-3-.78h-4.51a1,1,0,0,0-.68.28.94.94,0,0,0-.28.69V81.87a.37.37,0,0,0,.11.27A.36.36,0,0,0,166.25,82.25Zm1.83-16.57h3.13a3.69,3.69,0,0,1,3.24,1.85,3.74,3.74,0,0,1,0,3.7,3.74,3.74,0,0,1-3.24,1.85h-3.13Z"/><path id="_Path_13" data-name="&lt;Path&gt;" class="cls-1" d="M186.1,62.08h.64a.85.85,0,0,0,.7-.32l2.17-2.49a.37.37,0,0,0,.11-.27.31.31,0,0,0-.11-.25.36.36,0,0,0-.27-.1h-1.8a.77.77,0,0,0-.75.51l-1,2.41a.47.47,0,0,0,0,.37A.31.31,0,0,0,186.1,62.08Z"/><path id="_Path_14" data-name="&lt;Path&gt;" class="cls-1" d="M182.67,82.25h7.61a.38.38,0,0,0,.38-.38V80.61a.39.39,0,0,0-.11-.27.36.36,0,0,0-.27-.1h-2.71V65.62h2.71a.36.36,0,0,0,.27-.1.37.37,0,0,0,.11-.27V64a.38.38,0,0,0-.38-.38h-7.61a.38.38,0,0,0-.38.38v1.26a.37.37,0,0,0,.11.27.36.36,0,0,0,.27.1h2.7V80.24h-2.7a.36.36,0,0,0-.27.1.39.39,0,0,0-.11.27v1.26a.38.38,0,0,0,.38.38Z"/><path id="_Path_15" data-name="&lt;Path&gt;" class="cls-1" d="M196.63,65.68h4.64V81.87a.38.38,0,0,0,.38.38h1.45a.36.36,0,0,0,.26-.11.33.33,0,0,0,.11-.27V65.68h4.64a.38.38,0,0,0,.38-.38V64a.38.38,0,0,0-.38-.38H196.63a.36.36,0,0,0-.26.11.33.33,0,0,0-.11.27V65.3a.33.33,0,0,0,.11.27A.36.36,0,0,0,196.63,65.68Z"/><path id="_Path_16" data-name="&lt;Path&gt;" class="cls-1" d="M219.35,62.08H220a.85.85,0,0,0,.7-.32l2.17-2.49A.37.37,0,0,0,223,59a.31.31,0,0,0-.11-.25.36.36,0,0,0-.27-.1h-1.8a.77.77,0,0,0-.75.51l-1,2.41a.47.47,0,0,0,0,.37A.31.31,0,0,0,219.35,62.08Z"/><path id="_Path_17" data-name="&lt;Path&gt;" class="cls-1" d="M215.59,82.25h8.82a.38.38,0,0,0,.38-.38V80.56a.38.38,0,0,0-.38-.38h-7.58V73.43h5.79a.4.4,0,0,0,.27-.11.36.36,0,0,0,.1-.27V71.79a.36.36,0,0,0-.1-.27.39.39,0,0,0-.27-.1h-5.79V65.68h7.58a.38.38,0,0,0,.38-.38V64a.38.38,0,0,0-.38-.38h-8.82a1,1,0,0,0-.68.28.94.94,0,0,0-.28.69v16.7a.94.94,0,0,0,.28.69A1,1,0,0,0,215.59,82.25Z"/><path id="_Path_18" data-name="&lt;Path&gt;" class="cls-1" d="M232.74,82.22a9.73,9.73,0,0,0,2.67.38,7.36,7.36,0,0,0,3.19-.66,5.1,5.1,0,0,0,2.18-1.89,5.23,5.23,0,0,0,.8-2.9,4.59,4.59,0,0,0-.93-2.89,5.47,5.47,0,0,0-2.49-1.8c-1-.39-1.65-.63-1.81-.7a19.89,19.89,0,0,1-2-.88,3.63,3.63,0,0,1-1.19-1,2.55,2.55,0,0,1-.48-1.59,2.7,2.7,0,0,1,1-2.2,4,4,0,0,1,2.62-.81,6.91,6.91,0,0,1,3.59,1.08.35.35,0,0,0,.32.05.43.43,0,0,0,.25-.21l.59-1.1a.4.4,0,0,0,0-.28.34.34,0,0,0-.15-.21,8.2,8.2,0,0,0-2.16-1,8.47,8.47,0,0,0-2.51-.37,7.17,7.17,0,0,0-2.89.57,4.71,4.71,0,0,0-2.11,1.73,4.87,4.87,0,0,0-.79,2.82,4.53,4.53,0,0,0,.75,2.71,5.26,5.26,0,0,0,1.77,1.6,22.92,22.92,0,0,0,2.71,1.19c.86.34,1.53.64,2,.89a3.76,3.76,0,0,1,1.21,1,2.5,2.5,0,0,1,.48,1.58,2.86,2.86,0,0,1-1.1,2.35,4.39,4.39,0,0,1-2.82.87,7.7,7.7,0,0,1-3.91-1.23.35.35,0,0,0-.21-.06.41.41,0,0,0-.38.24l-.62,1.21a.42.42,0,0,0,0,.27.32.32,0,0,0,.15.19A7.67,7.67,0,0,0,232.74,82.22Z"/><path id="_Path_19" data-name="&lt;Path&gt;" class="cls-1" d="M248.12,82.25h10.54a.36.36,0,0,0,.26-.11.37.37,0,0,0,.11-.27V80.56a.37.37,0,0,0-.11-.27.36.36,0,0,0-.26-.11h-8.53l8.74-15.09a1,1,0,0,0,.11-.46,1.09,1.09,0,0,0-.26-.71.83.83,0,0,0-.66-.31H247.93a.38.38,0,0,0-.38.38V65.3a.38.38,0,0,0,.38.38H256l-8.69,15.09a.87.87,0,0,0-.13.46,1,1,0,0,0,.26.71A.83.83,0,0,0,248.12,82.25Z"/><path id="_Path_20" data-name="&lt;Path&gt;" class="cls-1" d="M266.43,82.25h8.82a.38.38,0,0,0,.38-.38V80.56a.38.38,0,0,0-.38-.38h-7.58V73.43h5.79a.36.36,0,0,0,.26-.11.33.33,0,0,0,.11-.27V71.79a.33.33,0,0,0-.11-.27.35.35,0,0,0-.26-.1h-5.79V65.68h7.58a.38.38,0,0,0,.38-.38V64a.38.38,0,0,0-.38-.38h-8.82a1,1,0,0,0-.68.28.94.94,0,0,0-.28.69v16.7a.94.94,0,0,0,.28.69A1,1,0,0,0,266.43,82.25Z"/><path id="_Path_21" data-name="&lt;Path&gt;" class="cls-1" d="M281.34,65.68H286V81.87a.33.33,0,0,0,.11.27.36.36,0,0,0,.26.11h1.45a.38.38,0,0,0,.38-.38V65.68h4.64a.36.36,0,0,0,.26-.11.33.33,0,0,0,.11-.27V64a.33.33,0,0,0-.11-.27.36.36,0,0,0-.26-.11H281.34A.38.38,0,0,0,281,64V65.3a.38.38,0,0,0,.38.38Z"/><path id="_Path_22" data-name="&lt;Path&gt;" class="cls-1" d="M299.17,82.25h7.62a.36.36,0,0,0,.26-.11.33.33,0,0,0,.11-.27V80.61a.35.35,0,0,0-.11-.27.35.35,0,0,0-.26-.1h-2.71V65.62h2.71a.35.35,0,0,0,.26-.1.33.33,0,0,0,.11-.27V64a.33.33,0,0,0-.11-.27.36.36,0,0,0-.26-.11h-7.62a.37.37,0,0,0-.27.11.36.36,0,0,0-.1.27v1.26a.34.34,0,0,0,.37.37h2.71V80.24h-2.71a.36.36,0,0,0-.27.1.38.38,0,0,0-.1.27v1.26a.36.36,0,0,0,.1.27A.37.37,0,0,0,299.17,82.25Z"/><path id="_Compound_Path_15" data-name="&lt;Compound Path&gt;" class="cls-1" d="M138.27,53.15V90.08H316.86V53.15ZM315.36,88.58H139.77V54.65H315.36Z"/></g><text></text></svg>