<svg height="302.36267" viewBox="0 0 566.92932 302.36267" width="566.92932" xmlns="http://www.w3.org/2000/svg" xmlns:xlink="http://www.w3.org/1999/xlink"><clipPath id="a"><path d="m0 226.772h425.197v-226.772h-425.197z"/></clipPath><g fill="#3871c1" transform="matrix(1.3333333 0 0 -1.3333333 0 302.36267)"><path d="m0 0h-7.308l-21.782 14.523v36.234l21.782 14.519h7.308v-1.5h-6.854l-20.736-13.822v-34.628l20.736-13.826h6.854z" transform="translate(55.6306 114.9808)"/><path d="m0 0h-18.024v1.5h17.402l6.717 6.722 3.472 13.882v21.072l-3.472 13.882-6.717 6.718h-17.402v1.5h18.024l7.449-7.452 3.618-14.555-.022-21.44-3.596-14.375z" transform="translate(77.2088 114.9808)"/><path d="m56.387 112.937h2.043v69.367h-2.043zm3.543-1.5h-5.043v72.367h5.043z"/><path d="m24.497 130.652h2.043v33.935h-2.043zm3.543-1.5h-5.043v36.935h5.043z"/><path d="m88.276 151.912h2.042v2.043h-2.042zm3.542-1.5h-5.042v5.043h5.042z"/><path d="m0 0v-15.119l26.187 15.119zm-1.5-17.717v19.217h33.284zm-16.213-12.673h6.026l10.572 10.536 36.986 21.354h8.694v2.043h-46.065v10.629h-2.043v-33.529l-8.991-8.989h-5.179zm6.647-1.5h-8.147v5.044h6.058l8.112 8.11v34.408h5.043v-10.629h46.065v-5.043h-9.792l-36.552-21.104z" transform="translate(95.3611 143.327)"/><path d="m0 0-60.224 42.169-18.79-18.789-1.06 1.06 19.679 19.68 60.027-42.03 1.172 1.673-59.732 41.825 3.822 3.82-1.445 1.446-3.049-3.049v16.269h-2.044v-18.312l-19.876-19.876-1.06 1.06 19.436 19.437v19.191h5.044v-14.148l1.549 1.549 3.566-3.567-3.618-3.617 59.496-41.659z" transform="translate(135.7478 43.8187)"/><g clip-path="url(#a)"><path d="m0 0c-7.402 0-13.424-6.021-13.424-13.424 0-7.402 6.022-13.424 13.424-13.424s13.424 6.022 13.424 13.424c0 7.403-6.022 13.424-13.424 13.424m0-28.348c-8.229 0-14.924 6.695-14.924 14.924 0 8.23 6.695 14.924 14.924 14.924s14.924-6.694 14.924-14.924c0-8.229-6.695-14.924-14.924-14.924" transform="translate(45.0066 72.4613)"/><path d="m0 0h-13.277v1.5h11.777v6.487h1.5z" transform="translate(120.1653 129.1517)"/><path d="m0 0h-1.5v13.801h19.175v-3.596h-1.5v2.096h-16.175z" transform="translate(102.4905 131.0257)"/><path d="m70.561 109.393h5.587v5.588h-5.587zm7.087-1.5h-8.587v8.588h8.587z"/><path d="m95.308 148.37h5.683v5.585h-5.683zm7.183-1.5h-8.683v8.585h8.683z"/><path d="m0 0c-3.494 0-6.337-2.843-6.337-6.337s2.843-6.337 6.337-6.337 6.337 2.843 6.337 6.337-2.843 6.337-6.337 6.337m0-14.174c-4.321 0-7.837 3.516-7.837 7.837s3.516 7.837 7.837 7.837 7.837-3.516 7.837-7.837-3.516-7.837-7.837-7.837" transform="translate(45.0066 65.3743)"/><path d="m0 0c-.563 0-1.021-.458-1.021-1.021 0-.564.458-1.022 1.021-1.022s1.022.458 1.022 1.022c0 .563-.459 1.021-1.022 1.021m0-3.543c-1.39 0-2.521 1.131-2.521 2.522 0 1.39 1.131 2.521 2.521 2.521 1.391 0 2.522-1.131 2.522-2.521 0-1.391-1.131-2.522-2.522-2.522" transform="translate(45.0066 60.0589)"/><path d="m0 0c-.982.59-1.761 1.386-2.332 2.387-.572 1.001-.858 2.092-.858 3.271v6.275c0 1.179.286 2.269.858 3.271.571 1.001 1.35 1.796 2.332 2.386.983.59 2.056.885 3.218.885.947 0 1.833-.165 2.655-.496.821-.331 1.546-.809 2.172-1.435.089-.071.134-.179.134-.321 0-.125-.045-.242-.134-.349-.376-.429-.617-.697-.725-.805-.125-.09-.25-.133-.375-.133-.143 0-.277.062-.402.187-.894.858-1.993 1.287-3.298 1.287-.768 0-1.474-.205-2.118-.616-.644-.412-1.153-.962-1.528-1.649-.376-.689-.564-1.426-.564-2.212v-6.275c0-.787.188-1.524.564-2.213.375-.687.884-1.237 1.528-1.648s1.35-.617 2.118-.617c1.305 0 2.404.429 3.298 1.287.125.125.259.187.402.187.125 0 .25-.044.375-.133.108-.108.349-.375.725-.805.089-.089.134-.205.134-.349 0-.125-.045-.232-.134-.321-.626-.626-1.351-1.104-2.172-1.435-.822-.33-1.708-.496-2.655-.496-1.162 0-2.235.295-3.218.885" transform="translate(174.7984 151.6981)"/><path d="m0 0c.67.411 1.202.961 1.596 1.648.392.689.59 1.426.59 2.213v6.247c0 .788-.198 1.525-.59 2.213-.394.688-.926 1.238-1.596 1.649-.671.411-1.399.617-2.186.617s-1.514-.206-2.185-.617c-.67-.411-1.202-.961-1.595-1.649s-.59-1.425-.59-2.213v-6.247c0-.787.197-1.524.59-2.213.393-.687.925-1.237 1.595-1.648.671-.411 1.398-.617 2.185-.617s1.515.206 2.186.617m-5.47-1.797c-1.01.59-1.81 1.386-2.4 2.387s-.885 2.092-.885 3.271v6.247c0 1.18.295 2.271.885 3.272s1.39 1.797 2.4 2.387c1.01.589 2.105.884 3.284.884 1.18 0 2.275-.295 3.286-.884 1.009-.59 1.809-1.386 2.399-2.387s.885-2.092.885-3.272v-6.247c0-1.179-.295-2.27-.885-3.271s-1.39-1.797-2.399-2.387c-1.011-.59-2.106-.885-3.286-.885-1.179 0-2.274.295-3.284.885" transform="translate(197.4166 153.495)"/><path d="m0 0c-.071.071-.107.161-.107.268v17.697c0 .161.053.295.161.402.107.108.241.161.402.161h1.582c.143 0 .276-.031.402-.093.124-.063.223-.158.295-.282l8.473-14.801v14.801c0 .107.036.197.107.268.072.071.162.107.269.107h1.341c.106 0 .196-.036.267-.107.072-.071.108-.161.108-.268v-17.697c0-.161-.054-.295-.161-.402-.108-.108-.242-.161-.403-.161h-1.608c-.144 0-.277.031-.402.093-.125.063-.224.157-.295.282l-8.447 14.775v-14.775c0-.107-.036-.197-.107-.268-.071-.072-.161-.107-.269-.107h-1.339c-.108 0-.198.035-.269.107" transform="translate(209.0132 151.2694)"/><path d="m0 0c-.072.071-.107.161-.107.268v16.196h-4.639c-.108 0-.197.035-.269.107-.071.072-.107.16-.107.268v1.314c0 .107.036.197.107.268.072.071.161.107.269.107h11.475c.108 0 .198-.036.269-.107s.107-.161.107-.268v-1.314c0-.108-.036-.196-.107-.268s-.161-.107-.269-.107h-4.638v-16.196c0-.107-.036-.197-.108-.268-.071-.072-.16-.107-.267-.107h-1.448c-.108 0-.198.035-.268.107" transform="translate(233.7086 151.2694)"/><path d="m0 0c-.187.188-.281.416-.281.684v16.706c0 .267.094.496.281.683.188.188.416.281.685.281h8.821c.107 0 .196-.036.268-.107s.108-.161.108-.268v-1.314c0-.107-.036-.196-.108-.268s-.161-.107-.268-.107h-7.588v-5.738h5.792c.106 0 .196-.036.268-.108.071-.071.107-.161.107-.268v-1.26c0-.107-.036-.197-.107-.269-.072-.071-.162-.106-.268-.106h-5.792v-6.758h7.588c.107 0 .196-.036.268-.107.072-.072.108-.16.108-.268v-1.314c0-.107-.036-.197-.108-.268-.072-.072-.161-.107-.268-.107h-8.821c-.269 0-.497.094-.685.281" transform="translate(247.2359 151.4432)"/><path d="m0 0c-.099.063-.166.147-.201.255l-5.149 14.908-1.769-14.452c-.019-.144-.076-.255-.175-.335-.099-.081-.219-.121-.361-.121h-1.261c-.144 0-.255.049-.335.147-.081.098-.112.21-.094.335l2.333 17.859c.018.089.058.161.12.215.063.053.13.08.202.08h1.877c.107 0 .214-.032.322-.094.106-.063.169-.148.187-.255l5.283-15.311 5.335 15.418c.054.162.162.242.322.242h1.85c.143 0 .264-.04.363-.121.097-.081.156-.192.173-.335l2.307-17.698v-.053c0-.108-.041-.205-.121-.295s-.184-.134-.309-.134h-1.287c-.142 0-.263.04-.361.121-.099.08-.157.191-.175.335l-1.769 14.398-5.149-14.854c-.036-.108-.103-.192-.201-.255-.099-.062-.201-.094-.309-.094h-1.34c-.107 0-.21.032-.308.094" transform="translate(272.0923 150.9071)"/><path d="m0 0c.68 0 1.305.166 1.877.496.572.331 1.023.782 1.354 1.355.331.572.497 1.188.497 1.85 0 .661-.166 1.278-.497 1.85s-.782 1.023-1.354 1.354c-.572.33-1.197.496-1.877.496h-3.137v-7.401zm-5.229-9.063c-.071.072-.107.162-.107.268v17.296c0 .268.094.496.281.684.189.187.416.281.685.281h4.505c1.072 0 2.054-.26 2.949-.778.894-.518 1.6-1.215 2.118-2.091.519-.876.777-1.842.777-2.896 0-1.055-.258-2.02-.777-2.896-.518-.876-1.224-1.574-2.118-2.091-.895-.52-1.877-.778-2.949-.778h-3.272v-6.731c0-.106-.036-.196-.107-.268s-.161-.107-.269-.107h-1.447c-.107 0-.197.035-.269.107" transform="translate(295.5943 160.3319)"/><path d="m0 0c.67.411 1.202.961 1.596 1.648.392.689.59 1.426.59 2.213v6.247c0 .788-.198 1.525-.59 2.213-.394.688-.926 1.238-1.596 1.649-.671.411-1.399.617-2.186.617s-1.514-.206-2.185-.617c-.67-.411-1.202-.961-1.595-1.649s-.59-1.425-.59-2.213v-6.247c0-.787.197-1.524.59-2.213.393-.687.925-1.237 1.595-1.648.671-.411 1.398-.617 2.185-.617s1.515.206 2.186.617m-5.47-1.797c-1.01.59-1.81 1.386-2.4 2.387s-.885 2.092-.885 3.271v6.247c0 1.18.295 2.271.885 3.272s1.39 1.797 2.4 2.387c1.01.589 2.105.884 3.284.884 1.18 0 2.275-.295 3.286-.884 1.009-.59 1.809-1.386 2.399-2.387s.885-2.092.885-3.272v-6.247c0-1.179-.295-2.27-.885-3.271s-1.39-1.797-2.399-2.387c-1.011-.59-2.106-.885-3.286-.885-1.179 0-2.274.295-3.284.885" transform="translate(316.3619 153.495)"/><path d="m0 0c.965 0 1.765.312 2.399.938.635.625.953 1.413.953 2.36 0 .983-.318 1.792-.953 2.427-.634.634-1.434.952-2.399.952h-3.271v-6.677zm-5.363-9.787c-.072.071-.108.161-.108.267v17.296c0 .268.094.496.282.684.188.187.416.281.684.281h4.665c1.001 0 1.917-.241 2.749-.723.831-.484 1.488-1.14 1.971-1.971.482-.832.724-1.739.724-2.722 0-1.305-.412-2.449-1.234-3.432-.822-.984-1.859-1.6-3.11-1.851l4.451-7.186c.054-.072.08-.161.08-.268 0-.143-.049-.259-.147-.349s-.219-.134-.362-.134h-1.368c-.179 0-.312.081-.402.242l-4.693 7.589h-2.09v-7.456c0-.106-.037-.196-.108-.267-.071-.072-.161-.108-.268-.108h-1.448c-.107 0-.197.036-.268.108" transform="translate(333.3218 161.0565)"/><path d="m0 0-2.869 8.875-2.869-8.875zm-10.042-6.798c-.081.116-.094.255-.041.416l5.819 17.697c.035.108.103.193.202.255.097.063.201.094.307.094h1.771c.106 0 .21-.031.307-.094.099-.062.165-.147.201-.255l5.819-17.697c.018-.036.028-.098.028-.187 0-.108-.041-.202-.121-.282-.081-.081-.184-.121-.309-.121h-1.315c-.105 0-.209.032-.306.094-.1.063-.166.148-.201.255l-1.503 4.666h-6.971l-1.502-4.666c-.018-.107-.08-.192-.188-.255-.107-.062-.214-.094-.321-.094h-1.315c-.16 0-.281.058-.361.174" transform="translate(354.3697 158.1336)"/><path d="m0 0c.965 0 1.764.312 2.398.938.635.625.954 1.413.954 2.36 0 .983-.319 1.792-.954 2.427-.634.634-1.433.952-2.398.952h-3.271v-6.677zm-5.363-9.787c-.073.071-.108.161-.108.267v17.296c0 .268.094.496.282.684.187.187.416.281.683.281h4.666c1 0 1.916-.241 2.748-.723.832-.484 1.488-1.14 1.971-1.971.482-.832.725-1.739.725-2.722 0-1.305-.413-2.449-1.235-3.432-.822-.984-1.859-1.6-3.109-1.851l4.451-7.186c.053-.072.08-.161.08-.268 0-.143-.049-.259-.148-.349-.098-.09-.219-.134-.362-.134h-1.367c-.18 0-.312.081-.402.242l-4.694 7.589h-2.089v-7.456c0-.106-.038-.196-.108-.267-.072-.072-.162-.108-.269-.108h-1.448c-.107 0-.197.036-.267.108" transform="translate(370.2442 161.0565)"/><path d="m0 0c-.07.071-.107.161-.107.268v8.607l-5.497 8.93c-.054.106-.08.196-.08.267 0 .144.043.255.133.335.09.081.207.121.35.121h1.447c.162 0 .295-.08.402-.241l4.344-7.159 4.319 7.159c.105.161.24.241.4.241h1.449c.143 0 .258-.04.348-.121.09-.08.135-.191.135-.335 0-.071-.028-.161-.081-.267l-5.47-8.849v-8.688c0-.107-.035-.197-.108-.268-.07-.072-.16-.107-.267-.107h-1.447c-.108 0-.198.035-.27.107" transform="translate(386.1973 151.2694)"/><path d="m162.73 144.825h237.97v33.932h-237.97zm239.47-1.5h-240.97v36.932h240.97z"/><path d="m0 0c-.982.59-1.761 1.386-2.332 2.387-.572 1.001-.858 2.092-.858 3.271v6.275c0 1.179.286 2.269.858 3.271.571 1.001 1.35 1.796 2.332 2.386.983.59 2.056.885 3.218.885.947 0 1.833-.165 2.655-.496.821-.331 1.546-.809 2.172-1.435.089-.071.134-.179.134-.321 0-.125-.045-.242-.134-.349-.376-.429-.617-.697-.725-.805-.125-.09-.25-.133-.375-.133-.143 0-.277.062-.402.187-.894.858-1.993 1.287-3.298 1.287-.768 0-1.474-.205-2.118-.616-.644-.412-1.153-.962-1.528-1.649-.376-.689-.564-1.426-.564-2.212v-6.275c0-.787.188-1.524.564-2.213.375-.687.884-1.237 1.528-1.648s1.35-.617 2.118-.617c1.305 0 2.404.429 3.298 1.287.125.125.259.187.402.187.125 0 .25-.044.375-.133.108-.108.349-.375.725-.805.089-.089.134-.205.134-.349 0-.125-.045-.232-.134-.321-.626-.626-1.351-1.104-2.172-1.435-.822-.33-1.708-.496-2.655-.496-1.162 0-2.235.295-3.218.885" transform="translate(174.7984 52.4862)"/><path d="m0 0c-.187.188-.281.416-.281.684v16.706c0 .267.094.496.281.683.188.188.416.281.685.281h8.821c.107 0 .196-.036.268-.107s.108-.161.108-.268v-1.314c0-.107-.036-.196-.108-.268s-.161-.107-.268-.107h-7.588v-5.738h5.792c.106 0 .196-.036.268-.108.071-.071.107-.161.107-.268v-1.26c0-.107-.036-.197-.107-.269-.072-.071-.162-.106-.268-.106h-5.792v-6.758h7.588c.107 0 .196-.036.268-.107.072-.072.108-.16.108-.268v-1.314c0-.107-.036-.197-.108-.268-.072-.072-.161-.107-.268-.107h-8.821c-.269 0-.497.094-.685.281" transform="translate(189.6129 52.2313)"/><path d="m0 0c-.071.071-.107.161-.107.268v17.697c0 .161.053.295.161.402.107.108.241.161.402.161h1.582c.143 0 .276-.031.402-.093.124-.063.223-.158.295-.282l8.473-14.801v14.801c0 .107.036.197.107.268.072.071.162.107.269.107h1.341c.106 0 .196-.036.267-.107.072-.071.108-.161.108-.268v-17.697c0-.161-.054-.295-.161-.402-.108-.108-.242-.161-.403-.161h-1.608c-.144 0-.277.031-.402.093-.125.063-.224.157-.295.282l-8.447 14.775v-14.775c0-.107-.036-.197-.107-.268-.071-.072-.161-.107-.269-.107h-1.339c-.108 0-.198.035-.269.107" transform="translate(206.1705 52.0575)"/><path d="m0 0c-.072.071-.107.161-.107.268v16.196h-4.639c-.108 0-.197.035-.269.107-.071.072-.107.16-.107.268v1.314c0 .107.036.197.107.268.072.071.161.107.269.107h11.475c.108 0 .198-.036.269-.107s.107-.161.107-.268v-1.314c0-.108-.036-.196-.107-.268s-.161-.107-.269-.107h-4.638v-16.196c0-.107-.036-.197-.108-.268-.071-.072-.16-.107-.267-.107h-1.448c-.108 0-.198.035-.268.107" transform="translate(230.8668 52.0575)"/><path d="m0 0c.965 0 1.765.312 2.399.938.635.625.953 1.413.953 2.36 0 .983-.318 1.792-.953 2.427-.634.634-1.434.952-2.399.952h-3.271v-6.677zm-5.363-9.787c-.072.071-.108.161-.108.267v17.296c0 .268.094.496.282.684.188.187.416.281.684.281h4.665c1.001 0 1.917-.241 2.749-.723.831-.484 1.488-1.14 1.971-1.971.482-.832.724-1.739.724-2.722 0-1.305-.412-2.449-1.234-3.432-.822-.984-1.859-1.6-3.11-1.851l4.451-7.186c.054-.072.08-.161.08-.268 0-.143-.049-.259-.147-.349s-.219-.134-.362-.134h-1.368c-.179 0-.312.081-.402.242l-4.693 7.589h-2.09v-7.456c0-.106-.037-.196-.108-.267-.071-.072-.161-.108-.268-.108h-1.448c-.107 0-.197.036-.268.108" transform="translate(249.5836 61.8446)"/><path d="m0 0c-.187.188-.281.416-.281.684v16.706c0 .267.094.496.281.683.188.188.416.281.685.281h8.821c.107 0 .196-.036.268-.107s.108-.161.108-.268v-1.314c0-.107-.036-.196-.108-.268s-.161-.107-.268-.107h-7.588v-5.738h5.792c.106 0 .196-.036.268-.108.071-.071.107-.161.107-.268v-1.26c0-.107-.036-.197-.107-.269-.072-.071-.162-.106-.268-.106h-5.792v-6.758h7.588c.107 0 .196-.036.268-.107.072-.072.108-.16.108-.268v-1.314c0-.107-.036-.197-.108-.268-.072-.072-.161-.107-.268-.107h-8.821c-.269 0-.497.094-.685.281" transform="translate(262.1441 52.2313)"/><path d="m0 0c-.071.071-.107.161-.107.269v1.287c0 .107.036.196.107.267.071.072.161.108.269.108h6.649c.107 0 .196-.036.269-.108.071-.071.106-.16.106-.267v-1.287c0-.108-.035-.198-.106-.269-.073-.071-.162-.106-.269-.106h-6.649c-.108 0-.198.035-.269.106" transform="translate(278.7027 59.2967)"/><path d="m0 0c-.081.062-.121.147-.121.255v17.912c0 .106.036.196.107.268.072.071.161.107.269.107h1.447c.108 0 .197-.036.269-.107.071-.072.107-.162.107-.268v-7.991h.777l6.49 8.125c.142.161.303.241.482.241h1.69c.125 0 .218-.031.281-.094.062-.062.094-.147.094-.255 0-.107-.037-.197-.108-.268l-6.944-8.607 6.918-8.742c.071-.071.107-.16.107-.267 0-.125-.04-.224-.121-.295-.08-.073-.174-.108-.281-.108h-1.69c-.161 0-.312.08-.456.241l-6.354 8.018h-.885v-7.91c0-.108-.04-.193-.121-.255-.08-.062-.174-.094-.281-.094h-1.395c-.107 0-.201.032-.281.094" transform="translate(293.6246 52.0438)"/><path d="m0 0c-.054.098-.054.219 0 .362l.992 2.413c.143.339.393.51.75.51h1.797c.107 0 .196-.032.269-.094.071-.063.106-.147.106-.254 0-.108-.035-.198-.106-.269l-2.172-2.493c-.18-.215-.412-.322-.698-.322h-.643c-.144 0-.241.048-.295.147m-4.144-20.03c-.187.188-.281.416-.281.683v16.706c0 .268.094.496.281.684.189.187.416.281.685.281h8.821c.108 0 .197-.036.269-.107.071-.071.107-.161.107-.268v-1.314c0-.108-.036-.197-.107-.268-.072-.072-.161-.107-.269-.107h-7.588v-5.739h5.792c.107 0 .197-.036.268-.107s.107-.161.107-.268v-1.26c0-.108-.036-.198-.107-.269s-.161-.106-.268-.106h-5.792v-6.758h7.588c.108 0 .197-.036.269-.107.071-.072.107-.161.107-.268v-1.315c0-.106-.036-.196-.107-.267-.072-.072-.161-.108-.269-.108h-8.821c-.269 0-.496.094-.685.282" transform="translate(315.7056 72.2616)"/><path d="m0 0c-.081.062-.121.147-.121.255v17.912c0 .106.036.196.107.268.072.071.161.107.269.107h1.447c.108 0 .197-.036.269-.107.071-.072.107-.162.107-.268v-7.991h.777l6.49 8.125c.142.161.303.241.482.241h1.69c.125 0 .218-.031.281-.094.062-.062.094-.147.094-.255 0-.107-.037-.197-.108-.268l-6.944-8.607 6.918-8.742c.071-.071.107-.16.107-.267 0-.125-.04-.224-.121-.295-.08-.073-.174-.108-.281-.108h-1.69c-.161 0-.312.08-.456.241l-6.354 8.018h-.885v-7.91c0-.108-.04-.193-.121-.255-.08-.062-.174-.094-.281-.094h-1.395c-.107 0-.201.032-.281.094" transform="translate(328.1334 52.0438)"/><path d="m162.73 45.614h185.461v33.932h-185.461zm186.961-1.5h-188.461v36.932h188.461z"/><path d="m0 0-2.869 8.875-2.869-8.875zm-10.042-6.798c-.081.116-.094.255-.041.416l5.819 17.697c.035.107.103.192.202.255.097.062.201.094.307.094h1.771c.106 0 .21-.032.307-.094.099-.063.165-.148.201-.255l5.82-17.697c.017-.036.026-.098.026-.187 0-.108-.04-.202-.12-.282-.081-.081-.184-.121-.309-.121h-1.314c-.106 0-.21.032-.308.094-.098.063-.166.148-.201.255l-1.502 4.666h-6.971l-1.502-4.666c-.018-.107-.08-.192-.188-.255-.107-.062-.214-.094-.321-.094h-1.315c-.16 0-.281.058-.361.174" transform="translate(180.7789 108.5282)"/><path d="m0 0c.965 0 1.765.312 2.399.938.635.625.953 1.412.953 2.359 0 .984-.318 1.792-.953 2.427-.634.635-1.434.952-2.399.952h-3.271v-6.676zm-5.363-9.787c-.072.071-.108.161-.108.267v17.296c0 .267.094.496.282.683.188.188.416.282.684.282h4.665c1.001 0 1.917-.241 2.749-.724.831-.483 1.488-1.14 1.971-1.971.482-.832.724-1.739.724-2.721 0-1.306-.412-2.45-1.234-3.432-.822-.984-1.859-1.6-3.11-1.851l4.451-7.186c.054-.072.08-.161.08-.268 0-.143-.049-.259-.147-.349s-.219-.134-.362-.134h-1.368c-.179 0-.312.081-.402.242l-4.693 7.589h-2.09v-7.456c0-.106-.037-.196-.108-.267-.071-.072-.161-.108-.268-.108h-1.448c-.107 0-.197.036-.268.108" transform="translate(196.6519 111.451)"/><path d="m0 0c-.982.59-1.761 1.386-2.332 2.387-.572 1.001-.858 2.092-.858 3.271v6.274c0 1.18.286 2.27.858 3.272.571 1.001 1.35 1.796 2.332 2.385.983.59 2.056.885 3.218.885.947 0 1.833-.165 2.655-.496.821-.33 1.546-.809 2.172-1.435.089-.071.134-.178.134-.321 0-.125-.045-.241-.134-.348-.376-.429-.617-.698-.725-.805-.125-.09-.25-.134-.375-.134-.143 0-.277.063-.402.188-.894.858-1.993 1.287-3.298 1.287-.768 0-1.474-.205-2.118-.617s-1.153-.961-1.528-1.649c-.376-.688-.564-1.426-.564-2.212v-6.274c0-.787.188-1.524.564-2.213.375-.687.884-1.237 1.528-1.648s1.35-.617 2.118-.617c1.305 0 2.404.429 3.298 1.287.125.125.259.187.402.187.125 0 .25-.044.375-.133.108-.108.349-.375.725-.805.089-.089.134-.205.134-.349 0-.125-.045-.232-.134-.321-.626-.626-1.351-1.104-2.172-1.435-.822-.33-1.708-.496-2.655-.496-1.162 0-2.235.295-3.218.885" transform="translate(211.5865 102.0926)"/><path d="m0 0c-.071.071-.107.161-.107.268v17.885c0 .106.036.196.107.267.071.072.161.108.269.108h1.447c.107 0 .197-.036.268-.108.072-.071.108-.161.108-.267v-7.428h9.009v7.428c0 .106.036.196.107.267.071.072.161.108.269.108h1.448c.106 0 .196-.036.267-.108.072-.071.108-.161.108-.267v-17.885c0-.107-.036-.197-.108-.268-.071-.072-.161-.107-.267-.107h-1.448c-.108 0-.198.035-.269.107-.071.071-.107.161-.107.268v8.447h-9.009v-8.447c0-.107-.036-.197-.108-.268-.071-.072-.161-.107-.268-.107h-1.447c-.108 0-.198.035-.269.107" transform="translate(226.2281 101.6639)"/><path d="m0 0c-.072.071-.107.161-.107.268v1.26c0 .108.035.197.107.268.071.071.16.107.268.107h2.708v14.614h-2.708c-.108 0-.197.035-.268.108-.072.07-.107.16-.107.267v1.261c0 .106.035.196.107.267.071.072.16.108.268.108h7.615c.107 0 .196-.036.268-.108.072-.071.108-.161.108-.267v-1.261c0-.107-.036-.197-.108-.267-.072-.073-.161-.108-.268-.108h-2.708v-14.614h2.708c.107 0 .196-.036.268-.107s.108-.16.108-.268v-1.26c0-.107-.036-.197-.108-.268-.072-.072-.161-.107-.268-.107h-7.615c-.108 0-.197.035-.268.107" transform="translate(246.4722 101.6639)"/><path d="m0 0c-.072.071-.107.161-.107.268v16.195h-4.639c-.108 0-.197.036-.269.108-.071.071-.107.16-.107.267v1.315c0 .106.036.196.107.267.072.072.161.108.269.108h11.475c.108 0 .198-.036.269-.108.071-.071.107-.161.107-.267v-1.315c0-.107-.036-.196-.107-.267-.071-.072-.161-.108-.269-.108h-4.638v-16.195c0-.107-.036-.197-.108-.268-.071-.072-.16-.107-.267-.107h-1.448c-.108 0-.198.035-.268.107" transform="translate(265.4566 101.6639)"/><path d="m0 0c-.187.188-.281.416-.281.684v16.705c0 .268.094.496.281.684.188.187.416.281.685.281h8.821c.107 0 .196-.036.268-.107.072-.072.108-.162.108-.268v-1.314c0-.108-.036-.197-.108-.268-.072-.072-.161-.107-.268-.107h-7.588v-5.739h5.792c.106 0 .196-.036.268-.107.071-.071.107-.161.107-.268v-1.26c0-.107-.036-.197-.107-.269-.072-.071-.162-.106-.268-.106h-5.792v-6.758h7.588c.107 0 .196-.036.268-.107.072-.072.108-.16.108-.268v-1.314c0-.107-.036-.197-.108-.268-.072-.072-.161-.107-.268-.107h-8.821c-.269 0-.497.094-.685.281" transform="translate(278.983 101.8377)"/><path d="m0 0c-.982.59-1.761 1.386-2.332 2.387-.572 1.001-.858 2.092-.858 3.271v6.274c0 1.18.286 2.27.858 3.272.571 1.001 1.35 1.796 2.332 2.385.983.59 2.056.885 3.218.885.947 0 1.833-.165 2.655-.496.821-.33 1.546-.809 2.172-1.435.089-.071.134-.178.134-.321 0-.125-.045-.241-.134-.348-.376-.429-.617-.698-.725-.805-.125-.09-.25-.134-.375-.134-.143 0-.277.063-.402.188-.894.858-1.993 1.287-3.298 1.287-.768 0-1.474-.205-2.118-.617s-1.153-.961-1.528-1.649c-.376-.688-.564-1.426-.564-2.212v-6.274c0-.787.188-1.524.564-2.213.375-.687.884-1.237 1.528-1.648s1.35-.617 2.118-.617c1.305 0 2.404.429 3.298 1.287.125.125.259.187.402.187.125 0 .25-.044.375-.133.108-.108.349-.375.725-.805.089-.089.134-.205.134-.349 0-.125-.045-.232-.134-.321-.626-.626-1.351-1.104-2.172-1.435-.822-.33-1.708-.496-2.655-.496-1.162 0-2.235.295-3.218.885" transform="translate(297.6861 102.0926)"/><path d="m0 0c-.072.071-.107.161-.107.268v16.195h-4.639c-.108 0-.197.036-.269.108-.071.071-.107.16-.107.267v1.315c0 .106.036.196.107.267.072.072.161.108.269.108h11.475c.108 0 .198-.036.269-.108.071-.071.107-.161.107-.267v-1.315c0-.107-.036-.196-.107-.267-.071-.072-.161-.108-.269-.108h-4.638v-16.195c0-.107-.036-.197-.108-.268-.071-.072-.16-.107-.267-.107h-1.448c-.108 0-.198.035-.268.107" transform="translate(316.2418 101.6639)"/><path d="m0 0c-1.002.59-1.793 1.426-2.373 2.507-.582 1.082-.872 2.31-.872 3.687v11.53c0 .107.036.196.107.268.072.071.161.107.269.107h1.447c.108 0 .197-.036.269-.107.071-.072.107-.161.107-.268v-11.663c0-.966.192-1.816.576-2.548.384-.734.907-1.296 1.569-1.69.661-.393 1.412-.59 2.253-.59.821 0 1.563.197 2.225.59.661.394 1.184.956 1.569 1.69.383.732.576 1.582.576 2.548v11.663c0 .107.036.196.107.268.071.071.161.107.269.107h1.447c.107 0 .197-.036.268-.107.072-.072.108-.161.108-.268v-11.53c0-1.377-.291-2.605-.872-3.687-.581-1.081-1.372-1.917-2.373-2.507s-2.11-.885-3.324-.885c-1.234 0-2.352.295-3.352.885" transform="translate(332.8658 102.0926)"/><path d="m0 0c.965 0 1.764.312 2.398.938.635.625.954 1.412.954 2.359 0 .984-.319 1.792-.954 2.427-.634.635-1.433.952-2.398.952h-3.272v-6.676zm-5.364-9.787c-.071.071-.107.161-.107.267v17.296c0 .267.094.496.281.683.189.188.416.282.685.282h4.665c1 0 1.916-.241 2.748-.724s1.488-1.14 1.971-1.971c.482-.832.725-1.739.725-2.721 0-1.306-.413-2.45-1.235-3.432-.822-.984-1.859-1.6-3.109-1.851l4.451-7.186c.053-.072.08-.161.08-.268 0-.143-.049-.259-.148-.349-.098-.09-.219-.134-.362-.134h-1.367c-.18 0-.312.081-.402.242l-4.693 7.589h-2.091v-7.456c0-.106-.036-.196-.107-.267-.072-.072-.162-.108-.269-.108h-1.447c-.108 0-.197.036-.269.108" transform="translate(356.0333 111.451)"/><path d="m0 0c-.187.188-.281.416-.281.684v16.705c0 .268.094.496.281.684.189.187.416.281.686.281h8.82c.107 0 .197-.036.269-.107.071-.072.108-.162.108-.268v-1.314c0-.108-.037-.197-.108-.268-.072-.072-.162-.107-.269-.107h-7.588v-5.739h5.793c.105 0 .195-.036.268-.107.07-.071.107-.161.107-.268v-1.26c0-.107-.037-.197-.107-.269-.073-.071-.163-.106-.268-.106h-5.793v-6.758h7.588c.107 0 .197-.036.269-.107.071-.072.108-.16.108-.268v-1.314c0-.107-.037-.197-.108-.268-.072-.072-.162-.107-.269-.107h-8.82c-.27 0-.497.094-.686.281" transform="translate(368.5938 101.8377)"/><path d="m162.769 95.22h223.937v33.932h-223.937zm225.438-1.5h-226.937v36.932h226.937z"/></g></g></svg>