<svg xmlns="http://www.w3.org/2000/svg" width="122" height="29.1" viewBox="0 0 122 29.1" role="presentation" aria-hidden="true">
    <polygon class="north" points="24,28.4 14.9,19.2 5.7,28.4 0,22.7 14.9,7.9 29.7,22.7"></polygon>
    <path d="M40.4 8c-5.8 0-10.5 4.7-10.5 10.5S34.6 29 40.4 29s10.5-4.7 10.5-10.5S46.2 8 40.4 8zm0 14c-1.9 0-3.5-1.6-3.5-3.5s1.6-3.5 3.5-3.5 3.5 1.6 3.5 3.5-1.6 3.5-3.5 3.5z"></path>
    <polygon fill-rule="evenodd" clip-rule="evenodd" points="61,17 61,28.1 51.9,28.1 51.9,19 62,9 72,9 72,17"></polygon>
    <path d="M94 17.7V0h-7v8.3c-.8-.2-2.6-.3-3.5-.3C77.7 8 73 12.7 73 18.5S77.7 29 83.5 29 94 24.3 94 18.5v-.8zM83.5 22c-1.9 0-3.5-1.6-3.5-3.5s1.6-3.5 3.5-3.5 3.5 1.6 3.5 3.5-1.6 3.5-3.5 3.5z"></path>
    <rect x="95" y="9" width="8" height="19"></rect>
    <path d="M114.6 22c-1.9 0-3.5-1.6-3.5-3.5s1.6-3.5 3.5-3.5c1 0 1.8.4 2.5 1l5-5c-1.9-1.9-4.5-3.1-7.4-3.1-5.8 0-10.5 4.7-10.5 10.5s4.7 10.5 10.5 10.5c2.7 0 5.1-1 6.9-2.6l-5-5c-.7.5-1.3.7-2 .7z"></path>
</svg>
