<svg id="Layer_1" xmlns="http://www.w3.org/2000/svg" width="390.6" height="162" viewBox="0 0 390.6 162"><style>.st0{fill:#202020}</style><path class="st0" d="M366.8 146.7h-2.5v13.7h1.7V149l4.3 11.4h1.6l4.3-11.4v11.4h1.7v-13.7h-2.5l-4.3 11.5-4.3-11.5zm-3.1 0h-11v1.5h4.6v12.2h1.8v-12.2h4.6v-1.5zM298.9 101h22.8v59.4h20V101h22.8V83.8h-65.6V101zm-52.5 21.1c0-11.4 4.9-22.7 17.8-22.7s17.8 11.4 17.8 22.7c0 11.4-4.9 22.7-17.8 22.7s-17.8-11.3-17.8-22.7m-20 0c0 22.2 13.6 39.9 37.8 39.9 24.1 0 37.8-17.7 37.8-39.9s-13.6-39.9-37.8-39.9c-24.2 0-37.8 17.7-37.8 39.9m-74.8 0c0 22.2 15 39.9 38.2 39.9 7.1 0 16.1-2.6 21.3-10l1.2 8.4h12.9v-41.9H193v14.8h13.9c-1.1 7-7.7 11.6-17.6 11.6-12.9 0-17.8-11.4-17.8-22.7 0-11.4 4.9-22.7 17.8-22.7 8 0 14.5 4 15.1 10.5h19.9c-1.8-19.2-18.8-27.7-34.6-27.7-23.1-.1-38.1 17.6-38.1 39.8m-39.8 9.7l8.7-26.8h.2l8.5 26.8h-17.4zm-1.3-48l-28.6 76.6h20.5l4.8-13.7h26.7l4.7 13.7h20.8l-28.6-76.6h-20.3zM55.1 99.2c4.2 0 8.2 1.8 8.2 7.4 0 5.4-4.7 7.3-8.2 7.3H39.7V99.2h15.4zm-15.4 27.6h16c6 0 10.7 2.2 10.7 9 0 6.3-4.4 8.6-10.7 8.6h-16v-17.6zm15.9-43H19.7v76.6h36.8c16.4 0 29.8-5.6 29.8-23.8 0-8.7-5-15.8-13.2-18.1 6-3 10.1-8.6 10.1-15.5 0-16-14.5-19.4-27.6-19.2m27.9-5.6l19.8-76.6h-20l-10.8 56h-.2L61 1.6H42.3L31 57.6h-.2L20 1.6H0l19.4 76.6h20.3l11.8-52.8h.2l11.8 52.8h20zm70.7-38.3c0 11.4-4.9 22.7-17.8 22.7s-17.8-11.4-17.8-22.7c0-11.4 4.9-22.7 17.8-22.7s17.8 11.3 17.8 22.7m20 0c0-22.2-13.6-39.9-37.7-39.9S98.7 17.7 98.7 39.9s13.6 39.9 37.8 39.9c24.1 0 37.7-17.7 37.7-39.9m57 0c0 11.4-4.9 22.7-17.8 22.7s-17.8-11.4-17.8-22.7c0-11.4 4.9-22.7 17.8-22.7s17.8 11.3 17.8 22.7m20 0c0-22.2-13.6-39.9-37.8-39.9-24.1 0-37.8 17.7-37.8 39.9s13.6 39.9 37.8 39.9c24.2 0 37.8-17.7 37.8-39.9m52.8-.4c0 15.3-6 21.2-21.1 21.6h-9.4V18.8h9.4c13.5 0 21.1 6.7 21.1 20.7m19.9.1c0-23.7-14.1-38-37.5-38h-32.9v76.6h32.9c23.2 0 37.5-13.5 37.5-38.6m44.3-14.9h19.9C388 7.4 372.7 0 357.5 0c-14.4 0-31.2 6.6-31.2 23.3 0 14.1 11.5 19 22.4 22.1 11 3.1 22 4.4 22 11.1 0 5.7-6.2 7.8-12.2 7.8-8.5 0-14.1-2.9-14.5-11.9h-20c.1 19.6 15.7 27.3 33.2 27.3 16.8 0 33.4-6.2 33.4-25.6 0-13.8-11.2-19-22.2-22.1-11.2-3.1-22.2-4.2-22.2-10.1 0-5 5.4-6.5 9.7-6.5 6.1 0 12.6 2.3 12.3 9.3"/></svg>